<svg xmlns="http://www.w3.org/2000/svg" xmlns:xlink="http://www.w3.org/1999/xlink" width="146" zoomAndPan="magnify" viewBox="0 0 109.5 112.499997" height="150" preserveAspectRatio="xMidYMid meet" version="1.0"><defs><clipPath id="70dcfdf685"><path d="M 39 17.003906 L 42 17.003906 L 42 38 L 39 38 Z M 39 17.003906 " clip-rule="nonzero"/></clipPath><clipPath id="ed9c539f00"><path d="M 40 72 L 43 72 L 43 93.019531 L 40 93.019531 Z M 40 72 " clip-rule="nonzero"/></clipPath><clipPath id="eddd737dcb"><path d="M 3.132812 54 L 24 54 L 24 57 L 3.132812 57 Z M 3.132812 54 " clip-rule="nonzero"/></clipPath><clipPath id="5936b5bf12"><path d="M 59 53 L 79.148438 53 L 79.148438 56 L 59 56 Z M 59 53 " clip-rule="nonzero"/></clipPath><clipPath id="67d3166818"><path d="M 72 34 L 80 34 L 80 41 L 72 41 Z M 72 34 " clip-rule="nonzero"/></clipPath><clipPath id="f76a98de03"><path d="M 20.71875 0.0117188 L 116.707031 32.570312 L 89.960938 111.417969 L -6.027344 78.859375 Z M 20.71875 0.0117188 " clip-rule="nonzero"/></clipPath><clipPath id="d9362cce45"><path d="M 20.71875 0.0117188 L 116.707031 32.570312 L 89.960938 111.417969 L -6.027344 78.859375 Z M 20.71875 0.0117188 " clip-rule="nonzero"/></clipPath><clipPath id="5b2eb49661"><path d="M 63 22 L 70 22 L 70 31 L 63 31 Z M 63 22 " clip-rule="nonzero"/></clipPath><clipPath id="319cd35512"><path d="M 20.71875 0.0117188 L 116.707031 32.570312 L 89.960938 111.417969 L -6.027344 78.859375 Z M 20.71875 0.0117188 " clip-rule="nonzero"/></clipPath><clipPath id="02785980b8"><path d="M 20.71875 0.0117188 L 116.707031 32.570312 L 89.960938 111.417969 L -6.027344 78.859375 Z M 20.71875 0.0117188 " clip-rule="nonzero"/></clipPath><clipPath id="c44cd5ecc9"><path d="M 61 54 L 78 54 L 78 67 L 61 67 Z M 61 54 " clip-rule="nonzero"/></clipPath><clipPath id="8d7869f76d"><path d="M 20.71875 0.0117188 L 116.707031 32.570312 L 89.960938 111.417969 L -6.027344 78.859375 Z M 20.71875 0.0117188 " clip-rule="nonzero"/></clipPath><clipPath id="9625b48be4"><path d="M 20.71875 0.0117188 L 116.707031 32.570312 L 89.960938 111.417969 L -6.027344 78.859375 Z M 20.71875 0.0117188 " clip-rule="nonzero"/></clipPath><clipPath id="33fb5c6a90"><path d="M 51 70 L 70 70 L 70 79 L 51 79 Z M 51 70 " clip-rule="nonzero"/></clipPath><clipPath id="fb11425f6a"><path d="M 20.71875 0.0117188 L 116.707031 32.570312 L 89.960938 111.417969 L -6.027344 78.859375 Z M 20.71875 0.0117188 " clip-rule="nonzero"/></clipPath><clipPath id="1eb94e4401"><path d="M 20.71875 0.0117188 L 116.707031 32.570312 L 89.960938 111.417969 L -6.027344 78.859375 Z M 20.71875 0.0117188 " clip-rule="nonzero"/></clipPath><clipPath id="52f9a4882e"><path d="M 36 76 L 45 76 L 45 95 L 36 95 Z M 36 76 " clip-rule="nonzero"/></clipPath><clipPath id="785e8bf994"><path d="M 20.71875 0.0117188 L 116.707031 32.570312 L 89.960938 111.417969 L -6.027344 78.859375 Z M 20.71875 0.0117188 " clip-rule="nonzero"/></clipPath><clipPath id="c399ca5f6f"><path d="M 20.71875 0.0117188 L 116.707031 32.570312 L 89.960938 111.417969 L -6.027344 78.859375 Z M 20.71875 0.0117188 " clip-rule="nonzero"/></clipPath><clipPath id="3ab3f0d9e1"><path d="M 35 20 L 50 20 L 50 35 L 35 35 Z M 35 20 " clip-rule="nonzero"/></clipPath><clipPath id="b0b2c7cdb4"><path d="M 20.71875 0.0117188 L 116.707031 32.570312 L 89.960938 111.417969 L -6.027344 78.859375 Z M 20.71875 0.0117188 " clip-rule="nonzero"/></clipPath><clipPath id="47b6e8210e"><path d="M 20.71875 0.0117188 L 116.707031 32.570312 L 89.960938 111.417969 L -6.027344 78.859375 Z M 20.71875 0.0117188 " clip-rule="nonzero"/></clipPath><clipPath id="3681b89b75"><path d="M 21 25 L 33 25 L 33 43 L 21 43 Z M 21 25 " clip-rule="nonzero"/></clipPath><clipPath id="2347495d15"><path d="M 20.71875 0.0117188 L 116.707031 32.570312 L 89.960938 111.417969 L -6.027344 78.859375 Z M 20.71875 0.0117188 " clip-rule="nonzero"/></clipPath><clipPath id="545e989b5f"><path d="M 20.71875 0.0117188 L 116.707031 32.570312 L 89.960938 111.417969 L -6.027344 78.859375 Z M 20.71875 0.0117188 " clip-rule="nonzero"/></clipPath><clipPath id="042571ab43"><path d="M 3 48 L 22 48 L 22 55 L 3 55 Z M 3 48 " clip-rule="nonzero"/></clipPath><clipPath id="06fb04ebb6"><path d="M 20.71875 0.0117188 L 116.707031 32.570312 L 89.960938 111.417969 L -6.027344 78.859375 Z M 20.71875 0.0117188 " clip-rule="nonzero"/></clipPath><clipPath id="72cf145619"><path d="M 20.71875 0.0117188 L 116.707031 32.570312 L 89.960938 111.417969 L -6.027344 78.859375 Z M 20.71875 0.0117188 " clip-rule="nonzero"/></clipPath><clipPath id="f309fc1736"><path d="M 53 31 L 70 31 L 70 49 L 53 49 Z M 53 31 " clip-rule="nonzero"/></clipPath><clipPath id="db5c4f12b9"><path d="M 20.71875 0.0117188 L 116.707031 32.570312 L 89.960938 111.417969 L -6.027344 78.859375 Z M 20.71875 0.0117188 " clip-rule="nonzero"/></clipPath><clipPath id="f4984eb2ec"><path d="M 20.71875 0.0117188 L 116.707031 32.570312 L 89.960938 111.417969 L -6.027344 78.859375 Z M 20.71875 0.0117188 " clip-rule="nonzero"/></clipPath><clipPath id="79210ee744"><path d="M 22 35 L 63 35 L 63 75 L 22 75 Z M 22 35 " clip-rule="nonzero"/></clipPath><clipPath id="f594d30f86"><path d="M 20.71875 0.0117188 L 116.707031 32.570312 L 89.960938 111.417969 L -6.027344 78.859375 Z M 20.71875 0.0117188 " clip-rule="nonzero"/></clipPath><clipPath id="9cacec3fd9"><path d="M 20.71875 0.0117188 L 116.707031 32.570312 L 89.960938 111.417969 L -6.027344 78.859375 Z M 20.71875 0.0117188 " clip-rule="nonzero"/></clipPath><clipPath id="cc3e76d30c"><path d="M 76 26 L 108 26 L 108 56 L 76 56 Z M 76 26 " clip-rule="nonzero"/></clipPath><clipPath id="ca7a1c5cbf"><path d="M 20.71875 0.0117188 L 116.707031 32.570312 L 89.960938 111.417969 L -6.027344 78.859375 Z M 20.71875 0.0117188 " clip-rule="nonzero"/></clipPath><clipPath id="b8ad006778"><path d="M 20.71875 0.0117188 L 116.707031 32.570312 L 89.960938 111.417969 L -6.027344 78.859375 Z M 20.71875 0.0117188 " clip-rule="nonzero"/></clipPath></defs><path stroke-linecap="round" transform="matrix(0.0327809, 0, 0, -0.0327809, -28.53504, 124.720375)" fill="none" stroke-linejoin="round" d="M 1892.41362 2029.741753 L 1804.948461 2007.458395 L 1727.969588 1851.951538 " stroke="#224c8d" stroke-width="50" stroke-opacity="1" stroke-miterlimit="10"/><path stroke-linecap="round" transform="matrix(0.0327809, 0, 0, -0.0327809, -28.53504, 124.720375)" fill="none" stroke-linejoin="round" d="M 2306.741083 2029.741753 L 2394.206242 2007.458395 L 2471.185115 1851.951538 " stroke="#224c8d" stroke-width="50" stroke-opacity="1" stroke-miterlimit="10"/><path stroke-linecap="round" transform="matrix(0.0327809, 0, 0, -0.0327809, -28.53504, 124.720375)" fill="none" stroke-linejoin="round" d="M 2306.741083 2221.116474 L 2394.206242 2243.399832 L 2471.185115 2398.906688 " stroke="#224c8d" stroke-width="50" stroke-opacity="1" stroke-miterlimit="10"/><path stroke-linecap="round" transform="matrix(0.0327809, 0, 0, -0.0327809, -28.53504, 124.720375)" fill="none" stroke-linejoin="round" d="M 1892.41362 2221.116474 L 1804.948461 2243.399832 L 1727.969588 2398.906688 " stroke="#224c8d" stroke-width="50" stroke-opacity="1" stroke-miterlimit="10"/><path stroke-linecap="round" transform="matrix(0.0327809, 0, 0, -0.0327809, -28.53504, 124.720375)" fill="none" stroke-linejoin="round" d="M 1688.646015 2034.389084 L 1768.842271 2133.651315 L 1892.294458 2140.562731 " stroke="#224c8d" stroke-width="50" stroke-opacity="1" stroke-miterlimit="10"/><path stroke-linecap="round" transform="matrix(0.0327809, 0, 0, -0.0327809, -28.53504, 124.720375)" fill="none" stroke-linejoin="round" d="M 2507.05298 2034.389084 L 2426.856723 2133.651315 L 2303.285375 2140.562731 " stroke="#224c8d" stroke-width="50" stroke-opacity="1" stroke-miterlimit="10"/><path stroke-linecap="round" transform="matrix(0.0327809, 0, 0, -0.0327809, -28.53504, 124.720375)" fill="none" stroke-linejoin="round" d="M 2067.701425 2378.529927 C 2067.701425 2378.529927 2065.318178 2448.716547 2003.711247 2493.1641 " stroke="#224c8d" stroke-width="50" stroke-opacity="1" stroke-miterlimit="10"/><path stroke-linecap="round" transform="matrix(0.0327809, 0, 0, -0.0327809, -28.53504, 124.720375)" fill="none" stroke-linejoin="round" d="M 2126.925109 2378.529927 C 2126.925109 2378.529927 2129.427518 2448.716547 2191.153611 2493.1641 " stroke="#224c8d" stroke-width="50" stroke-opacity="1" stroke-miterlimit="10"/><path fill="#224c8d" d="M 43.558594 48.824219 C 43.558594 50.664062 42.070312 52.152344 40.234375 52.152344 C 38.398438 52.152344 36.910156 50.664062 36.910156 48.824219 C 36.910156 46.992188 38.398438 45.503906 40.234375 45.503906 C 42.070312 45.503906 43.558594 46.992188 43.558594 48.824219 " fill-opacity="1" fill-rule="nonzero"/><path stroke-linecap="round" transform="matrix(0.0327809, 0, 0, -0.0327809, -28.53504, 124.720375)" fill="none" stroke-linejoin="round" d="M 2199.25665 2315.254724 C 2199.25665 2259.129261 2153.855798 2213.728408 2097.849497 2213.728408 C 2041.843197 2213.728408 1996.442344 2259.129261 1996.442344 2315.254724 C 1996.442344 2371.141862 2041.843197 2416.542714 2097.849497 2416.542714 C 2153.855798 2416.542714 2199.25665 2371.141862 2199.25665 2315.254724 Z M 2199.25665 2315.254724 " stroke="#224c8d" stroke-width="50" stroke-opacity="1" stroke-miterlimit="10"/><path fill="#6db5e7" d="M 40.234375 65.5625 C 36.066406 65.5625 32.675781 62.171875 32.675781 58.007812 L 32.675781 48.824219 C 32.675781 48.375 33.046875 48.007812 33.496094 48.007812 L 46.96875 48.007812 C 47.421875 48.007812 47.789062 48.375 47.789062 48.824219 L 47.789062 58.007812 C 47.789062 62.171875 44.398438 65.5625 40.234375 65.5625 " fill-opacity="1" fill-rule="nonzero"/><path fill="#224c8d" d="M 46.96875 47.1875 L 33.496094 47.1875 C 32.59375 47.1875 31.855469 47.921875 31.855469 48.824219 L 31.855469 58.007812 C 31.855469 62.625 35.617188 66.378906 40.234375 66.378906 C 44.851562 66.378906 48.609375 62.625 48.609375 58.007812 L 48.609375 48.824219 C 48.609375 47.921875 47.875 47.1875 46.96875 47.1875 Z M 46.96875 48.824219 L 46.96875 58.007812 C 46.96875 61.730469 43.953125 64.742188 40.234375 64.742188 C 36.515625 64.742188 33.496094 61.730469 33.496094 58.007812 L 33.496094 48.824219 L 46.96875 48.824219 " fill-opacity="1" fill-rule="nonzero"/><path stroke-linecap="round" transform="matrix(0.0327809, 0, 0, -0.0327809, -28.53504, 124.720375)" fill="none" stroke-linejoin="round" d="M 2097.849497 2315.254724 L 2097.849497 2042.015474 " stroke="#224c8d" stroke-width="50" stroke-opacity="1" stroke-miterlimit="10"/><path stroke-linecap="round" transform="matrix(0.0327809, 0, 0, -0.0327809, -28.53504, 124.720375)" fill="none" stroke-linejoin="round" d="M 2273.613952 1922.495645 L 2097.849497 2047.735266 L 1926.0174 1922.495645 " stroke="#224c8d" stroke-width="50" stroke-opacity="1" stroke-miterlimit="10"/><path stroke-linecap="butt" transform="matrix(0.0327809, 0, 0, -0.0327809, -28.53504, 124.720375)" fill="none" stroke-linejoin="round" d="M 1418.266661 2107.197275 C 1418.266661 1731.95506 1722.48812 1427.733601 2097.849497 1427.733601 C 2473.210874 1427.733601 2777.432333 1731.95506 2777.432333 2107.197275 C 2777.432333 2482.558652 2473.210874 2786.780111 2097.849497 2786.780111 C 1722.48812 2786.780111 1418.266661 2482.558652 1418.266661 2107.197275 Z M 1418.266661 2107.197275 " stroke="#224c8d" stroke-width="37.544998" stroke-opacity="1" stroke-miterlimit="10"/><path stroke-linecap="butt" transform="matrix(0.0327809, 0, 0, -0.0327809, -28.53504, 124.720375)" fill="none" stroke-linejoin="round" d="M 1163.020925 2107.197275 C 1163.020925 1590.866847 1581.51907 1172.368702 2097.849497 1172.368702 C 2614.179925 1172.368702 3032.67807 1590.866847 3032.67807 2107.197275 C 3032.67807 2623.527702 2614.179925 3042.14501 2097.849497 3042.14501 C 1581.51907 3042.14501 1163.020925 2623.527702 1163.020925 2107.197275 Z M 1163.020925 2107.197275 " stroke="#224c8d" stroke-width="51.650002" stroke-opacity="1" stroke-miterlimit="10"/><g clip-path="url(#70dcfdf685)"><path stroke-linecap="round" transform="matrix(0.0327809, 0, 0, -0.0327809, -28.53504, 124.720375)" fill="none" stroke-linejoin="round" d="M 2116.31966 2696.69338 L 2116.31966 3259.854608 " stroke="#224c8d" stroke-width="51.650002" stroke-opacity="1" stroke-miterlimit="10"/></g><g clip-path="url(#ed9c539f00)"><path stroke-linecap="round" transform="matrix(0.0327809, 0, 0, -0.0327809, -28.53504, 124.720375)" fill="none" stroke-linejoin="round" d="M 2135.743122 992.195241 L 2135.743122 1555.356469 " stroke="#224c8d" stroke-width="51.650002" stroke-opacity="1" stroke-miterlimit="10"/></g><g clip-path="url(#eddd737dcb)"><path stroke-linecap="round" transform="matrix(0.0327809, 0, 0, -0.0327809, -28.53504, 124.720375)" fill="none" stroke-linejoin="round" d="M 1555.303355 2116.253613 L 992.142127 2116.253613 " stroke="#224c8d" stroke-width="51.650002" stroke-opacity="1" stroke-miterlimit="10"/></g><g clip-path="url(#5936b5bf12)"><path stroke-linecap="round" transform="matrix(0.0327809, 0, 0, -0.0327809, -28.53504, 124.720375)" fill="none" stroke-linejoin="round" d="M 3259.801494 2135.677075 L 2696.759428 2135.677075 " stroke="#224c8d" stroke-width="51.650002" stroke-opacity="1" stroke-miterlimit="10"/></g><g clip-path="url(#67d3166818)"><g clip-path="url(#f76a98de03)"><g clip-path="url(#d9362cce45)"><path fill="#004aad" d="M 79.609375 35.636719 C 79.269531 34.746094 78.269531 34.304688 77.382812 34.644531 L 72.410156 36.558594 C 72.722656 37.675781 72.886719 38.855469 72.886719 40.066406 L 78.621094 37.863281 C 79.507812 37.519531 79.949219 36.523438 79.609375 35.636719 " fill-opacity="1" fill-rule="nonzero"/></g></g></g><g clip-path="url(#5b2eb49661)"><g clip-path="url(#319cd35512)"><g clip-path="url(#02785980b8)"><path fill="#004aad" d="M 66.40625 23.03125 L 63.148438 28.222656 C 63.734375 28.339844 64.3125 28.488281 64.871094 28.679688 L 64.320312 30.3125 L 64.875 28.679688 C 65.4375 28.871094 65.976562 29.101562 66.5 29.367188 L 69.324219 24.863281 C 69.832031 24.054688 69.585938 22.992188 68.78125 22.484375 C 67.972656 21.980469 66.910156 22.222656 66.40625 23.03125 " fill-opacity="1" fill-rule="nonzero"/></g></g></g><g clip-path="url(#c44cd5ecc9)"><g clip-path="url(#8d7869f76d)"><g clip-path="url(#9625b48be4)"><path fill="#004aad" d="M 76.933594 55.183594 C 76.289062 54.488281 75.195312 54.449219 74.5 55.097656 L 66.347656 62.683594 L 63.605469 60.636719 C 63.089844 61.660156 62.507812 62.660156 61.859375 63.632812 L 65.4375 66.308594 C 65.585938 66.417969 65.746094 66.503906 65.914062 66.558594 C 66.5 66.757812 67.167969 66.632812 67.640625 66.1875 L 76.847656 57.621094 C 77.546875 56.972656 77.585938 55.878906 76.933594 55.183594 " fill-opacity="1" fill-rule="nonzero"/></g></g></g><g clip-path="url(#33fb5c6a90)"><g clip-path="url(#fb11425f6a)"><g clip-path="url(#1eb94e4401)"><path fill="#004aad" d="M 51.582031 73.355469 L 54.894531 78.179688 C 55.109375 78.5 55.417969 78.722656 55.761719 78.839844 C 56.160156 78.972656 56.609375 78.960938 57.019531 78.777344 L 68.492188 73.621094 C 69.359375 73.230469 69.746094 72.210938 69.355469 71.34375 C 68.96875 70.472656 67.945312 70.085938 67.078125 70.476562 L 56.921875 75.042969 L 54.445312 71.4375 C 53.519531 72.132812 52.5625 72.773438 51.582031 73.355469 " fill-opacity="1" fill-rule="nonzero"/></g></g></g><g clip-path="url(#52f9a4882e)"><g clip-path="url(#785e8bf994)"><g clip-path="url(#c399ca5f6f)"><path fill="#004aad" d="M 37.152344 94.039062 C 37.203125 94.0625 37.257812 94.082031 37.3125 94.101562 C 38.140625 94.382812 39.0625 93.996094 39.433594 93.183594 L 44.328125 82.441406 C 44.523438 82.007812 44.53125 81.515625 44.351562 81.074219 L 42.648438 76.90625 C 41.464844 77.15625 40.289062 77.328125 39.132812 77.410156 L 40.882812 81.691406 L 36.296875 91.753906 C 35.902344 92.621094 36.285156 93.644531 37.152344 94.039062 " fill-opacity="1" fill-rule="nonzero"/></g></g></g><g clip-path="url(#3ab3f0d9e1)"><g clip-path="url(#b0b2c7cdb4)"><g clip-path="url(#47b6e8210e)"><path fill="#004aad" d="M 49.082031 21.359375 C 48.523438 20.589844 47.445312 20.417969 46.675781 20.980469 L 36.5 28.371094 C 35.824219 28.859375 35.597656 29.761719 35.960938 30.511719 L 37.898438 34.539062 C 38.976562 34.089844 40.074219 33.707031 41.175781 33.398438 L 39.691406 30.3125 L 48.699219 23.769531 C 49.472656 23.207031 49.640625 22.128906 49.082031 21.359375 " fill-opacity="1" fill-rule="nonzero"/></g></g></g><g clip-path="url(#3681b89b75)"><g clip-path="url(#2347495d15)"><g clip-path="url(#545e989b5f)"><path fill="#004aad" d="M 29.371094 26.109375 L 22.105469 36.378906 C 21.625 37.0625 21.699219 37.988281 22.285156 38.582031 L 26.382812 42.753906 C 27.140625 41.90625 27.957031 41.09375 28.816406 40.316406 L 25.753906 37.195312 L 32.183594 28.101562 C 32.734375 27.324219 32.546875 26.25 31.769531 25.699219 C 30.996094 25.148438 29.917969 25.332031 29.371094 26.109375 " fill-opacity="1" fill-rule="nonzero"/></g></g></g><g clip-path="url(#042571ab43)"><g clip-path="url(#06fb04ebb6)"><g clip-path="url(#72cf145619)"><path fill="#004aad" d="M 16.152344 51.660156 L 20.023438 54.203125 C 20.328125 53.066406 20.71875 51.945312 21.1875 50.84375 L 17.421875 48.371094 C 17.027344 48.113281 16.539062 48.027344 16.078125 48.136719 L 4.59375 50.878906 C 3.667969 51.097656 3.097656 52.027344 3.320312 52.953125 C 3.460938 53.550781 3.902344 54.003906 4.441406 54.1875 C 4.738281 54.289062 5.070312 54.308594 5.394531 54.230469 L 16.152344 51.660156 " fill-opacity="1" fill-rule="nonzero"/></g></g></g><g clip-path="url(#f309fc1736)"><g clip-path="url(#db5c4f12b9)"><g clip-path="url(#f4984eb2ec)"><path fill="#004aad" d="M 54.238281 35.101562 L 53.6875 36.734375 L 54.792969 33.46875 C 57.898438 34.523438 60.484375 36.285156 62.480469 38.710938 C 64.746094 41.460938 66.027344 44.8125 66.277344 48.480469 C 68.011719 46.269531 69.070312 43.800781 69.363281 41.421875 C 69.519531 40.171875 69.464844 38.945312 69.1875 37.796875 C 68.894531 36.601562 68.359375 35.488281 67.5625 34.523438 C 66.765625 33.558594 65.777344 32.820312 64.65625 32.304688 C 64.367188 32.171875 64.070312 32.046875 63.765625 31.945312 C 62.9375 31.664062 62.050781 31.5 61.132812 31.433594 C 58.742188 31.269531 56.109375 31.832031 53.605469 33.113281 C 54.007812 33.222656 54.402344 33.339844 54.792969 33.46875 L 54.238281 35.101562 " fill-opacity="1" fill-rule="nonzero"/></g></g></g><g clip-path="url(#79210ee744)"><g clip-path="url(#f594d30f86)"><g clip-path="url(#9cacec3fd9)"><path fill="#004aad" d="M 25.71875 68.980469 C 27.335938 70.941406 29.449219 72.328125 31.851562 73.144531 C 33.675781 73.761719 35.667969 74.050781 37.746094 74.019531 C 38.917969 74 40.113281 73.878906 41.320312 73.65625 C 44.09375 73.144531 46.925781 72.09375 49.628906 70.511719 C 50.601562 69.941406 51.558594 69.300781 52.492188 68.59375 C 52.800781 68.355469 53.109375 68.117188 53.414062 67.867188 C 55.707031 65.976562 57.609375 63.832031 59.09375 61.5625 C 59.742188 60.574219 60.3125 59.558594 60.796875 58.53125 C 61.105469 57.882812 61.378906 57.226562 61.617188 56.570312 C 61.90625 55.785156 62.144531 55 62.335938 54.21875 C 62.523438 53.433594 62.660156 52.648438 62.75 51.875 C 63.214844 47.800781 62.296875 43.910156 59.820312 40.902344 C 58.199219 38.9375 56.089844 37.550781 53.683594 36.734375 C 52.402344 36.300781 51.035156 36.027344 49.617188 35.917969 C 48.835938 35.855469 48.039062 35.839844 47.234375 35.875 C 46.429688 35.910156 45.613281 35.996094 44.792969 36.125 C 44.097656 36.234375 43.398438 36.378906 42.699219 36.554688 C 41.601562 36.835938 40.496094 37.199219 39.398438 37.644531 C 36.886719 38.667969 34.417969 40.125 32.125 42.011719 C 31.820312 42.261719 31.523438 42.515625 31.234375 42.777344 C 30.359375 43.554688 29.550781 44.375 28.804688 45.21875 C 26.730469 47.570312 25.160156 50.148438 24.125 52.769531 C 23.671875 53.914062 23.324219 55.066406 23.082031 56.210938 C 22.085938 60.921875 22.878906 65.527344 25.71875 68.980469 " fill-opacity="1" fill-rule="nonzero"/></g></g></g><g clip-path="url(#cc3e76d30c)"><g clip-path="url(#ca7a1c5cbf)"><g clip-path="url(#b8ad006778)"><path fill="#004aad" d="M 94.429688 42.714844 C 93.53125 42.410156 93.046875 41.429688 93.351562 40.53125 L 95.117188 35.332031 C 95.421875 34.429688 96.402344 33.945312 97.300781 34.253906 C 98.203125 34.558594 98.6875 35.539062 98.378906 36.4375 L 96.617188 41.636719 C 96.3125 42.539062 95.332031 43.019531 94.429688 42.714844 Z M 95.226562 45.738281 C 94.921875 46.636719 93.941406 47.121094 93.039062 46.816406 C 92.140625 46.507812 91.65625 45.53125 91.960938 44.628906 L 92.054688 44.359375 C 92.359375 43.457031 93.339844 42.976562 94.238281 43.28125 C 95.140625 43.585938 95.625 44.566406 95.320312 45.464844 Z M 99.8125 26.84375 L 76.636719 44.847656 L 107.257812 55.234375 L 99.8125 26.84375 " fill-opacity="1" fill-rule="nonzero"/></g></g></g></svg>