<svg xmlns="http://www.w3.org/2000/svg" xmlns:xlink="http://www.w3.org/1999/xlink" width="300" zoomAndPan="magnify" viewBox="0 0 224.87999 50.249999" height="67" preserveAspectRatio="xMidYMid meet" version="1.0"><defs><g/></defs><g fill="#004aad" fill-opacity="1"><g transform="translate(2.921448, 41.975037)"><g><path d="M 0.421875 -9.0625 C 0.140625 -10.226562 0.414062 -11.148438 1.25 -11.828125 C 2.09375 -12.503906 3.035156 -12.84375 4.078125 -12.84375 C 4.878906 -12.84375 5.585938 -12.648438 6.203125 -12.265625 C 6.828125 -11.890625 7.222656 -11.300781 7.390625 -10.5 C 7.828125 -9.21875 8.65625 -8.226562 9.875 -7.53125 C 11.09375 -6.832031 12.460938 -6.351562 13.984375 -6.09375 C 15.503906 -5.832031 16.925781 -5.703125 18.25 -5.703125 C 19.289062 -5.703125 20.429688 -5.78125 21.671875 -5.9375 C 22.910156 -6.101562 24.085938 -6.394531 25.203125 -6.8125 C 26.328125 -7.226562 27.25 -7.816406 27.96875 -8.578125 C 28.695312 -9.335938 29.0625 -10.320312 29.0625 -11.53125 C 29.0625 -12.8125 28.53125 -13.75 27.46875 -14.34375 C 26.40625 -14.945312 25.050781 -15.378906 23.40625 -15.640625 C 21.769531 -15.898438 20.050781 -16.085938 18.25 -16.203125 C 16.207031 -16.367188 14.15625 -16.609375 12.09375 -16.921875 C 10.03125 -17.242188 8.148438 -17.765625 6.453125 -18.484375 C 4.753906 -19.203125 3.382812 -20.253906 2.34375 -21.640625 C 1.300781 -23.023438 0.78125 -24.859375 0.78125 -27.140625 C 0.78125 -29.179688 1.300781 -30.941406 2.34375 -32.421875 C 3.382812 -33.898438 4.742188 -35.109375 6.421875 -36.046875 C 8.097656 -36.984375 9.914062 -37.679688 11.875 -38.140625 C 13.84375 -38.609375 15.769531 -38.84375 17.65625 -38.84375 C 19.726562 -38.84375 21.90625 -38.601562 24.1875 -38.125 C 26.46875 -37.644531 28.554688 -36.789062 30.453125 -35.5625 C 32.359375 -34.34375 33.773438 -32.632812 34.703125 -30.4375 C 35.015625 -29.3125 34.78125 -28.378906 34 -27.640625 C 33.226562 -26.898438 32.320312 -26.53125 31.28125 -26.53125 C 30.632812 -26.53125 30.019531 -26.679688 29.4375 -26.984375 C 28.863281 -27.285156 28.457031 -27.695312 28.21875 -28.21875 C 27.738281 -29.457031 26.894531 -30.375 25.6875 -30.96875 C 24.488281 -31.570312 23.164062 -31.960938 21.71875 -32.140625 C 20.28125 -32.328125 18.941406 -32.421875 17.703125 -32.421875 C 16.910156 -32.421875 15.960938 -32.335938 14.859375 -32.171875 C 13.753906 -32.015625 12.679688 -31.734375 11.640625 -31.328125 C 10.597656 -30.929688 9.726562 -30.382812 9.03125 -29.6875 C 8.332031 -28.988281 7.984375 -28.117188 7.984375 -27.078125 C 7.984375 -25.796875 8.484375 -24.832031 9.484375 -24.1875 C 10.484375 -23.550781 11.8125 -23.113281 13.46875 -22.875 C 15.132812 -22.632812 16.945312 -22.429688 18.90625 -22.265625 C 20.988281 -22.066406 23.0625 -21.835938 25.125 -21.578125 C 27.1875 -21.316406 29.054688 -20.851562 30.734375 -20.1875 C 32.410156 -19.53125 33.75 -18.53125 34.75 -17.1875 C 35.757812 -15.851562 36.265625 -13.988281 36.265625 -11.59375 C 36.265625 -9.1875 35.691406 -7.203125 34.546875 -5.640625 C 33.410156 -4.078125 31.921875 -2.835938 30.078125 -1.921875 C 28.234375 -1.003906 26.269531 -0.359375 24.1875 0.015625 C 22.113281 0.398438 20.132812 0.59375 18.25 0.59375 C 16.6875 0.59375 14.984375 0.441406 13.140625 0.140625 C 11.304688 -0.148438 9.515625 -0.664062 7.765625 -1.40625 C 6.023438 -2.144531 4.492188 -3.132812 3.171875 -4.375 C 1.859375 -5.625 0.941406 -7.1875 0.421875 -9.0625 Z M 0.421875 -9.0625 "/></g></g></g><g fill="#004aad" fill-opacity="1"><g transform="translate(39.412873, 41.975037)"><g><path d="M 17.171875 -5.34375 C 18.328125 -5.34375 19.460938 -5.5 20.578125 -5.8125 C 21.703125 -6.132812 22.75 -6.675781 23.71875 -7.4375 C 24.632812 -8.28125 25.53125 -8.671875 26.40625 -8.609375 C 27.289062 -8.554688 28.019531 -8.238281 28.59375 -7.65625 C 29.175781 -7.070312 29.46875 -6.347656 29.46875 -5.484375 C 29.46875 -4.628906 29.050781 -3.800781 28.21875 -3 C 26.8125 -1.632812 25.144531 -0.679688 23.21875 -0.140625 C 21.300781 0.390625 19.34375 0.632812 17.34375 0.59375 C 14.226562 0.59375 11.476562 -0.0390625 9.09375 -1.3125 C 6.707031 -2.59375 4.84375 -4.375 3.5 -6.65625 C 2.164062 -8.9375 1.5 -11.582031 1.5 -14.59375 C 1.5 -17.875 2.140625 -20.753906 3.421875 -23.234375 C 4.703125 -25.710938 6.507812 -27.648438 8.84375 -29.046875 C 11.1875 -30.453125 13.960938 -31.15625 17.171875 -31.15625 C 20.367188 -31.15625 23.085938 -30.503906 25.328125 -29.203125 C 27.566406 -27.898438 29.273438 -26.078125 30.453125 -23.734375 C 31.640625 -21.398438 32.234375 -18.671875 32.234375 -15.546875 C 32.234375 -14.546875 32.03125 -13.695312 31.625 -13 C 31.226562 -12.300781 30.171875 -11.953125 28.453125 -11.953125 L 8.46875 -11.953125 C 9.03125 -9.984375 10.085938 -8.390625 11.640625 -7.171875 C 13.203125 -5.953125 15.046875 -5.34375 17.171875 -5.34375 Z M 17.234375 -25.21875 C 14.910156 -25.21875 12.96875 -24.484375 11.40625 -23.015625 C 9.84375 -21.554688 8.84375 -19.644531 8.40625 -17.28125 L 25.875 -17.28125 C 25.675781 -19.644531 24.894531 -21.554688 23.53125 -23.015625 C 22.164062 -24.484375 20.066406 -25.21875 17.234375 -25.21875 Z M 17.234375 -25.21875 "/></g></g></g><g fill="#004aad" fill-opacity="1"><g transform="translate(74.283767, 41.975037)"><g><path d="M 20.234375 -31.15625 C 23.035156 -31.15625 25.414062 -30.546875 27.375 -29.328125 C 29.332031 -28.109375 30.832031 -26.414062 31.875 -24.25 C 32.914062 -22.09375 33.4375 -19.570312 33.4375 -16.6875 L 33.4375 -3.125 C 33.4375 -2.195312 33.132812 -1.441406 32.53125 -0.859375 C 31.9375 -0.285156 31.097656 0 30.015625 0 C 29.015625 0 28.191406 -0.285156 27.546875 -0.859375 C 26.910156 -1.441406 26.59375 -2.195312 26.59375 -3.125 L 26.59375 -16.8125 C 26.59375 -19.289062 26 -21.300781 24.8125 -22.84375 C 23.632812 -24.382812 21.765625 -25.15625 19.203125 -25.15625 C 18.441406 -25.15625 17.53125 -24.941406 16.46875 -24.515625 C 15.414062 -24.097656 14.378906 -23.46875 13.359375 -22.625 C 12.335938 -21.789062 11.492188 -20.734375 10.828125 -19.453125 C 10.171875 -18.171875 9.84375 -16.648438 9.84375 -14.890625 L 9.84375 -3.0625 C 9.84375 -1.019531 8.742188 0 6.546875 0 C 5.503906 0 4.648438 -0.269531 3.984375 -0.8125 C 3.328125 -1.351562 3 -2.101562 3 -3.0625 L 3 -27.5 C 3 -28.5 3.347656 -29.257812 4.046875 -29.78125 C 4.753906 -30.300781 5.546875 -30.5625 6.421875 -30.5625 C 7.265625 -30.5625 8.046875 -30.300781 8.765625 -29.78125 C 9.484375 -29.257812 9.84375 -28.535156 9.84375 -27.609375 L 9.84375 -27.1875 C 11.5625 -28.789062 13.34375 -29.851562 15.1875 -30.375 C 17.03125 -30.894531 18.710938 -31.15625 20.234375 -31.15625 Z M 20.234375 -31.15625 "/></g></g></g><g fill="#004aad" fill-opacity="1"><g transform="translate(110.715165, 41.975037)"><g><path d="M 16.515625 -5.703125 C 17.429688 -6.222656 18.257812 -6.398438 19 -6.234375 C 19.738281 -6.078125 20.335938 -5.726562 20.796875 -5.1875 C 21.253906 -4.644531 21.484375 -4.015625 21.484375 -3.296875 C 21.484375 -2.773438 21.320312 -2.253906 21 -1.734375 C 20.6875 -1.210938 20.191406 -0.773438 19.515625 -0.421875 C 18.628906 0.0546875 17.828125 0.34375 17.109375 0.4375 C 16.390625 0.539062 15.550781 0.59375 14.59375 0.59375 C 11.988281 0.59375 9.984375 0.0546875 8.578125 -1.015625 C 7.179688 -2.097656 6.222656 -3.5 5.703125 -5.21875 C 5.179688 -6.9375 4.921875 -8.757812 4.921875 -10.6875 L 4.921875 -24.859375 L 2.640625 -24.859375 C 1.515625 -24.859375 0.679688 -25.15625 0.140625 -25.75 C -0.390625 -26.351562 -0.65625 -26.992188 -0.65625 -27.671875 C -0.65625 -28.390625 -0.378906 -29.050781 0.171875 -29.65625 C 0.734375 -30.257812 1.554688 -30.5625 2.640625 -30.5625 L 4.921875 -30.5625 L 4.921875 -35.71875 C 4.921875 -36.757812 5.257812 -37.539062 5.9375 -38.0625 C 6.625 -38.582031 7.40625 -38.84375 8.28125 -38.84375 C 9.125 -38.84375 9.90625 -38.582031 10.625 -38.0625 C 11.34375 -37.539062 11.703125 -36.757812 11.703125 -35.71875 L 11.703125 -30.5625 L 16.390625 -30.5625 C 17.429688 -30.5625 18.226562 -30.257812 18.78125 -29.65625 C 19.34375 -29.050781 19.625 -28.390625 19.625 -27.671875 C 19.625 -26.953125 19.34375 -26.300781 18.78125 -25.71875 C 18.226562 -25.144531 17.429688 -24.859375 16.390625 -24.859375 L 11.703125 -24.859375 L 11.703125 -10.6875 C 11.703125 -9.800781 11.757812 -8.945312 11.875 -8.125 C 12 -7.3125 12.269531 -6.632812 12.6875 -6.09375 C 13.113281 -5.550781 13.75 -5.28125 14.59375 -5.28125 C 14.90625 -5.28125 15.25 -5.328125 15.625 -5.421875 C 16.007812 -5.523438 16.304688 -5.617188 16.515625 -5.703125 Z M 16.515625 -5.703125 "/></g></g></g><g fill="#004aad" fill-opacity="1"><g transform="translate(131.541458, 41.975037)"><g><path d="M 9 -35.0625 C 9 -34.0625 8.628906 -33.3125 7.890625 -32.8125 C 7.148438 -32.3125 6.359375 -32.0625 5.515625 -32.0625 C 4.640625 -32.0625 3.84375 -32.3125 3.125 -32.8125 C 2.40625 -33.3125 2.046875 -34.0625 2.046875 -35.0625 L 2.046875 -35.84375 C 2.046875 -36.882812 2.40625 -37.644531 3.125 -38.125 C 3.84375 -38.601562 4.640625 -38.84375 5.515625 -38.84375 C 6.359375 -38.84375 7.148438 -38.601562 7.890625 -38.125 C 8.628906 -37.644531 9 -36.882812 9 -35.84375 Z M 2.09375 -27.609375 C 2.09375 -28.578125 2.460938 -29.3125 3.203125 -29.8125 C 3.953125 -30.3125 4.722656 -30.5625 5.515625 -30.5625 C 6.359375 -30.5625 7.140625 -30.3125 7.859375 -29.8125 C 8.578125 -29.3125 8.9375 -28.597656 8.9375 -27.671875 L 8.9375 -2.9375 C 8.9375 -1.9375 8.578125 -1.195312 7.859375 -0.71875 C 7.140625 -0.238281 6.359375 0 5.515625 0 C 4.722656 0 3.953125 -0.238281 3.203125 -0.71875 C 2.460938 -1.195312 2.09375 -1.9375 2.09375 -2.9375 Z M 2.09375 -27.609375 "/></g></g></g><g fill="#004aad" fill-opacity="1"><g transform="translate(141.384147, 41.975037)"><g><path d="M 20.234375 -31.15625 C 23.035156 -31.15625 25.414062 -30.546875 27.375 -29.328125 C 29.332031 -28.109375 30.832031 -26.414062 31.875 -24.25 C 32.914062 -22.09375 33.4375 -19.570312 33.4375 -16.6875 L 33.4375 -3.125 C 33.4375 -2.195312 33.132812 -1.441406 32.53125 -0.859375 C 31.9375 -0.285156 31.097656 0 30.015625 0 C 29.015625 0 28.191406 -0.285156 27.546875 -0.859375 C 26.910156 -1.441406 26.59375 -2.195312 26.59375 -3.125 L 26.59375 -16.8125 C 26.59375 -19.289062 26 -21.300781 24.8125 -22.84375 C 23.632812 -24.382812 21.765625 -25.15625 19.203125 -25.15625 C 18.441406 -25.15625 17.53125 -24.941406 16.46875 -24.515625 C 15.414062 -24.097656 14.378906 -23.46875 13.359375 -22.625 C 12.335938 -21.789062 11.492188 -20.734375 10.828125 -19.453125 C 10.171875 -18.171875 9.84375 -16.648438 9.84375 -14.890625 L 9.84375 -3.0625 C 9.84375 -1.019531 8.742188 0 6.546875 0 C 5.503906 0 4.648438 -0.269531 3.984375 -0.8125 C 3.328125 -1.351562 3 -2.101562 3 -3.0625 L 3 -27.5 C 3 -28.5 3.347656 -29.257812 4.046875 -29.78125 C 4.753906 -30.300781 5.546875 -30.5625 6.421875 -30.5625 C 7.265625 -30.5625 8.046875 -30.300781 8.765625 -29.78125 C 9.484375 -29.257812 9.84375 -28.535156 9.84375 -27.609375 L 9.84375 -27.1875 C 11.5625 -28.789062 13.34375 -29.851562 15.1875 -30.375 C 17.03125 -30.894531 18.710938 -31.15625 20.234375 -31.15625 Z M 20.234375 -31.15625 "/></g></g></g><g fill="#004aad" fill-opacity="1"><g transform="translate(177.815546, 41.975037)"><g><path d="M 17.171875 -5.34375 C 18.328125 -5.34375 19.460938 -5.5 20.578125 -5.8125 C 21.703125 -6.132812 22.75 -6.675781 23.71875 -7.4375 C 24.632812 -8.28125 25.53125 -8.671875 26.40625 -8.609375 C 27.289062 -8.554688 28.019531 -8.238281 28.59375 -7.65625 C 29.175781 -7.070312 29.46875 -6.347656 29.46875 -5.484375 C 29.46875 -4.628906 29.050781 -3.800781 28.21875 -3 C 26.8125 -1.632812 25.144531 -0.679688 23.21875 -0.140625 C 21.300781 0.390625 19.34375 0.632812 17.34375 0.59375 C 14.226562 0.59375 11.476562 -0.0390625 9.09375 -1.3125 C 6.707031 -2.59375 4.84375 -4.375 3.5 -6.65625 C 2.164062 -8.9375 1.5 -11.582031 1.5 -14.59375 C 1.5 -17.875 2.140625 -20.753906 3.421875 -23.234375 C 4.703125 -25.710938 6.507812 -27.648438 8.84375 -29.046875 C 11.1875 -30.453125 13.960938 -31.15625 17.171875 -31.15625 C 20.367188 -31.15625 23.085938 -30.503906 25.328125 -29.203125 C 27.566406 -27.898438 29.273438 -26.078125 30.453125 -23.734375 C 31.640625 -21.398438 32.234375 -18.671875 32.234375 -15.546875 C 32.234375 -14.546875 32.03125 -13.695312 31.625 -13 C 31.226562 -12.300781 30.171875 -11.953125 28.453125 -11.953125 L 8.46875 -11.953125 C 9.03125 -9.984375 10.085938 -8.390625 11.640625 -7.171875 C 13.203125 -5.953125 15.046875 -5.34375 17.171875 -5.34375 Z M 17.234375 -25.21875 C 14.910156 -25.21875 12.96875 -24.484375 11.40625 -23.015625 C 9.84375 -21.554688 8.84375 -19.644531 8.40625 -17.28125 L 25.875 -17.28125 C 25.675781 -19.644531 24.894531 -21.554688 23.53125 -23.015625 C 22.164062 -24.484375 20.066406 -25.21875 17.234375 -25.21875 Z M 17.234375 -25.21875 "/></g></g></g><g fill="#004aad" fill-opacity="1"><g transform="translate(212.68644, 41.975037)"><g><path d="M 8.9375 -3 C 8.9375 -2.195312 8.609375 -1.492188 7.953125 -0.890625 C 7.296875 -0.296875 6.484375 0 5.515625 0 C 4.515625 0 3.691406 -0.296875 3.046875 -0.890625 C 2.410156 -1.492188 2.09375 -2.195312 2.09375 -3 L 2.09375 -35.84375 C 2.09375 -36.644531 2.410156 -37.34375 3.046875 -37.9375 C 3.691406 -38.539062 4.515625 -38.84375 5.515625 -38.84375 C 6.484375 -38.84375 7.296875 -38.539062 7.953125 -37.9375 C 8.609375 -37.34375 8.9375 -36.644531 8.9375 -35.84375 Z M 8.9375 -3 "/></g></g></g></svg>