<svg xmlns="http://www.w3.org/2000/svg" xmlns:xlink="http://www.w3.org/1999/xlink" width="300" zoomAndPan="magnify" viewBox="0 0 224.87999 50.249999" height="67" preserveAspectRatio="xMidYMid meet" version="1.0"><defs><g/><clipPath id="8c4ab845c7"><path d="M 1.59375 2 L 31 2 L 31 34 L 1.59375 34 Z M 1.59375 2 " clip-rule="nonzero"/></clipPath><clipPath id="4544a5f340"><path d="M 195 0.484375 L 196 0.484375 L 196 10 L 195 10 Z M 195 0.484375 " clip-rule="nonzero"/></clipPath><clipPath id="121ccb2ff9"><path d="M 195 24 L 197 24 L 197 33.3125 L 195 33.3125 Z M 195 24 " clip-rule="nonzero"/></clipPath><clipPath id="e1545df241"><path d="M 179.292969 16 L 188 16 L 188 18 L 179.292969 18 Z M 179.292969 16 " clip-rule="nonzero"/></clipPath><clipPath id="4909215b9f"><path d="M 203 16 L 212.117188 16 L 212.117188 18 L 203 18 Z M 203 16 " clip-rule="nonzero"/></clipPath><clipPath id="804bc58bb3"><path d="M 114 38 L 122 38 L 122 49.511719 L 114 49.511719 Z M 114 38 " clip-rule="nonzero"/></clipPath><clipPath id="eeddbeb305"><path d="M 161 38 L 170 38 L 170 49.511719 L 161 49.511719 Z M 161 38 " clip-rule="nonzero"/></clipPath><clipPath id="30ff6a4a5f"><path d="M 208 7 L 212 7 L 212 11 L 208 11 Z M 208 7 " clip-rule="nonzero"/></clipPath><clipPath id="74cc7f3d3c"><path d="M 186.671875 -6.640625 L 226.394531 6.832031 L 214.96875 40.511719 L 175.25 27.035156 Z M 186.671875 -6.640625 " clip-rule="nonzero"/></clipPath><clipPath id="64d8121202"><path d="M 186.671875 -6.640625 L 226.394531 6.832031 L 214.96875 40.511719 L 175.25 27.035156 Z M 186.671875 -6.640625 " clip-rule="nonzero"/></clipPath><clipPath id="99a4ef0dd1"><path d="M 204 2 L 208 2 L 208 7 L 204 7 Z M 204 2 " clip-rule="nonzero"/></clipPath><clipPath id="53a34627dc"><path d="M 186.671875 -6.640625 L 226.394531 6.832031 L 214.96875 40.511719 L 175.25 27.035156 Z M 186.671875 -6.640625 " clip-rule="nonzero"/></clipPath><clipPath id="47844f48ed"><path d="M 186.671875 -6.640625 L 226.394531 6.832031 L 214.96875 40.511719 L 175.25 27.035156 Z M 186.671875 -6.640625 " clip-rule="nonzero"/></clipPath><clipPath id="10ce16a4a7"><path d="M 203 16 L 211 16 L 211 22 L 203 22 Z M 203 16 " clip-rule="nonzero"/></clipPath><clipPath id="3ebe6c66d2"><path d="M 186.671875 -6.640625 L 226.394531 6.832031 L 214.96875 40.511719 L 175.25 27.035156 Z M 186.671875 -6.640625 " clip-rule="nonzero"/></clipPath><clipPath id="f00dffbb6b"><path d="M 186.671875 -6.640625 L 226.394531 6.832031 L 214.96875 40.511719 L 175.25 27.035156 Z M 186.671875 -6.640625 " clip-rule="nonzero"/></clipPath><clipPath id="2a9ac125a2"><path d="M 199 22 L 208 22 L 208 27 L 199 27 Z M 199 22 " clip-rule="nonzero"/></clipPath><clipPath id="fd57797cfc"><path d="M 186.671875 -6.640625 L 226.394531 6.832031 L 214.96875 40.511719 L 175.25 27.035156 Z M 186.671875 -6.640625 " clip-rule="nonzero"/></clipPath><clipPath id="a104e28856"><path d="M 186.671875 -6.640625 L 226.394531 6.832031 L 214.96875 40.511719 L 175.25 27.035156 Z M 186.671875 -6.640625 " clip-rule="nonzero"/></clipPath><clipPath id="192840bcb3"><path d="M 193 25 L 197 25 L 197 33 L 193 33 Z M 193 25 " clip-rule="nonzero"/></clipPath><clipPath id="d372c2e6e3"><path d="M 186.671875 -6.640625 L 226.394531 6.832031 L 214.96875 40.511719 L 175.25 27.035156 Z M 186.671875 -6.640625 " clip-rule="nonzero"/></clipPath><clipPath id="23a41e30d3"><path d="M 186.671875 -6.640625 L 226.394531 6.832031 L 214.96875 40.511719 L 175.25 27.035156 Z M 186.671875 -6.640625 " clip-rule="nonzero"/></clipPath><clipPath id="4f7d8894ab"><path d="M 192 2 L 199 2 L 199 8 L 192 8 Z M 192 2 " clip-rule="nonzero"/></clipPath><clipPath id="21362657da"><path d="M 186.671875 -6.640625 L 226.394531 6.832031 L 214.96875 40.511719 L 175.25 27.035156 Z M 186.671875 -6.640625 " clip-rule="nonzero"/></clipPath><clipPath id="10d9b25f14"><path d="M 186.671875 -6.640625 L 226.394531 6.832031 L 214.96875 40.511719 L 175.25 27.035156 Z M 186.671875 -6.640625 " clip-rule="nonzero"/></clipPath><clipPath id="a917adc7ed"><path d="M 187 4 L 192 4 L 192 12 L 187 12 Z M 187 4 " clip-rule="nonzero"/></clipPath><clipPath id="b0ecf18d8b"><path d="M 186.671875 -6.640625 L 226.394531 6.832031 L 214.96875 40.511719 L 175.25 27.035156 Z M 186.671875 -6.640625 " clip-rule="nonzero"/></clipPath><clipPath id="633c1ff85b"><path d="M 186.671875 -6.640625 L 226.394531 6.832031 L 214.96875 40.511719 L 175.25 27.035156 Z M 186.671875 -6.640625 " clip-rule="nonzero"/></clipPath><clipPath id="4c5b074cbf"><path d="M 179 13 L 187 13 L 187 17 L 179 17 Z M 179 13 " clip-rule="nonzero"/></clipPath><clipPath id="ad66dd9b4a"><path d="M 186.671875 -6.640625 L 226.394531 6.832031 L 214.96875 40.511719 L 175.25 27.035156 Z M 186.671875 -6.640625 " clip-rule="nonzero"/></clipPath><clipPath id="d46399127e"><path d="M 186.671875 -6.640625 L 226.394531 6.832031 L 214.96875 40.511719 L 175.25 27.035156 Z M 186.671875 -6.640625 " clip-rule="nonzero"/></clipPath><clipPath id="a8eb28d2cd"><path d="M 200 6 L 208 6 L 208 14 L 200 14 Z M 200 6 " clip-rule="nonzero"/></clipPath><clipPath id="81de57b309"><path d="M 186.671875 -6.640625 L 226.394531 6.832031 L 214.96875 40.511719 L 175.25 27.035156 Z M 186.671875 -6.640625 " clip-rule="nonzero"/></clipPath><clipPath id="bf022005e4"><path d="M 186.671875 -6.640625 L 226.394531 6.832031 L 214.96875 40.511719 L 175.25 27.035156 Z M 186.671875 -6.640625 " clip-rule="nonzero"/></clipPath><clipPath id="6650bb07d8"><path d="M 187 8 L 205 8 L 205 25 L 187 25 Z M 187 8 " clip-rule="nonzero"/></clipPath><clipPath id="637205cc3d"><path d="M 186.671875 -6.640625 L 226.394531 6.832031 L 214.96875 40.511719 L 175.25 27.035156 Z M 186.671875 -6.640625 " clip-rule="nonzero"/></clipPath><clipPath id="50a69a8dd4"><path d="M 186.671875 -6.640625 L 226.394531 6.832031 L 214.96875 40.511719 L 175.25 27.035156 Z M 186.671875 -6.640625 " clip-rule="nonzero"/></clipPath><clipPath id="6633419151"><path d="M 210 4 L 223 4 L 223 17 L 210 17 Z M 210 4 " clip-rule="nonzero"/></clipPath><clipPath id="79f207666a"><path d="M 186.671875 -6.640625 L 226.394531 6.832031 L 214.96875 40.511719 L 175.25 27.035156 Z M 186.671875 -6.640625 " clip-rule="nonzero"/></clipPath><clipPath id="79b8b69091"><path d="M 186.671875 -6.640625 L 226.394531 6.832031 L 214.96875 40.511719 L 175.25 27.035156 Z M 186.671875 -6.640625 " clip-rule="nonzero"/></clipPath></defs><g clip-path="url(#8c4ab845c7)"><g fill="#004aad" fill-opacity="1"><g transform="translate(1.294959, 33.06515)"><g><path d="M 0.328125 -7.203125 C 0.109375 -8.117188 0.332031 -8.847656 1 -9.390625 C 1.664062 -9.929688 2.410156 -10.203125 3.234375 -10.203125 C 3.867188 -10.203125 4.429688 -10.050781 4.921875 -9.75 C 5.421875 -9.445312 5.734375 -8.976562 5.859375 -8.34375 C 6.210938 -7.320312 6.875 -6.53125 7.84375 -5.96875 C 8.8125 -5.414062 9.898438 -5.035156 11.109375 -4.828125 C 12.316406 -4.628906 13.441406 -4.53125 14.484375 -4.53125 C 15.316406 -4.53125 16.222656 -4.59375 17.203125 -4.71875 C 18.191406 -4.84375 19.128906 -5.070312 20.015625 -5.40625 C 20.898438 -5.738281 21.628906 -6.207031 22.203125 -6.8125 C 22.773438 -7.414062 23.0625 -8.195312 23.0625 -9.15625 C 23.0625 -10.164062 22.640625 -10.910156 21.796875 -11.390625 C 20.960938 -11.867188 19.890625 -12.207031 18.578125 -12.40625 C 17.273438 -12.613281 15.910156 -12.769531 14.484375 -12.875 C 12.867188 -13 11.242188 -13.1875 9.609375 -13.4375 C 7.972656 -13.695312 6.476562 -14.109375 5.125 -14.671875 C 3.769531 -15.242188 2.679688 -16.078125 1.859375 -17.171875 C 1.035156 -18.273438 0.625 -19.734375 0.625 -21.546875 C 0.625 -23.160156 1.035156 -24.554688 1.859375 -25.734375 C 2.679688 -26.910156 3.757812 -27.867188 5.09375 -28.609375 C 6.425781 -29.359375 7.867188 -29.914062 9.421875 -30.28125 C 10.984375 -30.644531 12.515625 -30.828125 14.015625 -30.828125 C 15.660156 -30.828125 17.390625 -30.632812 19.203125 -30.25 C 21.015625 -29.875 22.675781 -29.203125 24.1875 -28.234375 C 25.695312 -27.265625 26.816406 -25.90625 27.546875 -24.15625 C 27.796875 -23.269531 27.609375 -22.53125 26.984375 -21.9375 C 26.367188 -21.351562 25.648438 -21.0625 24.828125 -21.0625 C 24.316406 -21.0625 23.832031 -21.179688 23.375 -21.421875 C 22.914062 -21.660156 22.59375 -21.988281 22.40625 -22.40625 C 22.019531 -23.382812 21.347656 -24.113281 20.390625 -24.59375 C 19.441406 -25.070312 18.394531 -25.378906 17.25 -25.515625 C 16.101562 -25.660156 15.039062 -25.734375 14.0625 -25.734375 C 13.425781 -25.734375 12.671875 -25.671875 11.796875 -25.546875 C 10.921875 -25.421875 10.066406 -25.195312 9.234375 -24.875 C 8.410156 -24.5625 7.722656 -24.125 7.171875 -23.5625 C 6.617188 -23.007812 6.34375 -22.320312 6.34375 -21.5 C 6.34375 -20.476562 6.738281 -19.710938 7.53125 -19.203125 C 8.320312 -18.691406 9.375 -18.34375 10.6875 -18.15625 C 12.007812 -17.96875 13.453125 -17.8125 15.015625 -17.6875 C 16.660156 -17.519531 18.300781 -17.332031 19.9375 -17.125 C 21.582031 -16.925781 23.070312 -16.5625 24.40625 -16.03125 C 25.738281 -15.507812 26.800781 -14.71875 27.59375 -13.65625 C 28.382812 -12.59375 28.78125 -11.109375 28.78125 -9.203125 C 28.78125 -7.296875 28.328125 -5.722656 27.421875 -4.484375 C 26.515625 -3.242188 25.332031 -2.253906 23.875 -1.515625 C 22.414062 -0.785156 20.859375 -0.269531 19.203125 0.03125 C 17.554688 0.332031 15.984375 0.484375 14.484375 0.484375 C 13.242188 0.484375 11.894531 0.363281 10.4375 0.125 C 8.976562 -0.113281 7.554688 -0.523438 6.171875 -1.109375 C 4.785156 -1.703125 3.566406 -2.488281 2.515625 -3.46875 C 1.472656 -4.457031 0.742188 -5.703125 0.328125 -7.203125 Z M 0.328125 -7.203125 "/></g></g></g></g><g fill="#004aad" fill-opacity="1"><g transform="translate(30.265186, 33.06515)"><g><path d="M 13.625 -4.234375 C 14.550781 -4.234375 15.457031 -4.359375 16.34375 -4.609375 C 17.238281 -4.867188 18.066406 -5.300781 18.828125 -5.90625 C 19.554688 -6.570312 20.269531 -6.878906 20.96875 -6.828125 C 21.664062 -6.785156 22.242188 -6.535156 22.703125 -6.078125 C 23.171875 -5.617188 23.40625 -5.046875 23.40625 -4.359375 C 23.40625 -3.679688 23.070312 -3.023438 22.40625 -2.390625 C 21.289062 -1.304688 19.96875 -0.546875 18.4375 -0.109375 C 16.914062 0.316406 15.359375 0.515625 13.765625 0.484375 C 11.296875 0.484375 9.113281 -0.0234375 7.21875 -1.046875 C 5.332031 -2.066406 3.851562 -3.476562 2.78125 -5.28125 C 1.71875 -7.09375 1.1875 -9.191406 1.1875 -11.578125 C 1.1875 -14.179688 1.691406 -16.46875 2.703125 -18.4375 C 3.722656 -20.40625 5.160156 -21.945312 7.015625 -23.0625 C 8.878906 -24.175781 11.082031 -24.734375 13.625 -24.734375 C 16.164062 -24.734375 18.328125 -24.21875 20.109375 -23.1875 C 21.890625 -22.15625 23.25 -20.707031 24.1875 -18.84375 C 25.125 -16.988281 25.59375 -14.820312 25.59375 -12.34375 C 25.59375 -11.550781 25.429688 -10.875 25.109375 -10.3125 C 24.796875 -9.757812 23.957031 -9.484375 22.59375 -9.484375 L 6.71875 -9.484375 C 7.164062 -7.929688 8.007812 -6.664062 9.25 -5.6875 C 10.488281 -4.71875 11.945312 -4.234375 13.625 -4.234375 Z M 13.671875 -20.015625 C 11.828125 -20.015625 10.285156 -19.429688 9.046875 -18.265625 C 7.816406 -17.109375 7.023438 -15.59375 6.671875 -13.71875 L 20.546875 -13.71875 C 20.378906 -15.59375 19.753906 -17.109375 18.671875 -18.265625 C 17.597656 -19.429688 15.929688 -20.015625 13.671875 -20.015625 Z M 13.671875 -20.015625 "/></g></g></g><g fill="#004aad" fill-opacity="1"><g transform="translate(57.948888, 33.06515)"><g><path d="M 16.0625 -24.734375 C 18.28125 -24.734375 20.164062 -24.25 21.71875 -23.28125 C 23.28125 -22.3125 24.472656 -20.96875 25.296875 -19.25 C 26.128906 -17.539062 26.546875 -15.539062 26.546875 -13.25 L 26.546875 -2.484375 C 26.546875 -1.742188 26.304688 -1.144531 25.828125 -0.6875 C 25.347656 -0.226562 24.679688 0 23.828125 0 C 23.035156 0 22.382812 -0.226562 21.875 -0.6875 C 21.363281 -1.144531 21.109375 -1.742188 21.109375 -2.484375 L 21.109375 -13.34375 C 21.109375 -15.3125 20.640625 -16.90625 19.703125 -18.125 C 18.765625 -19.351562 17.28125 -19.96875 15.25 -19.96875 C 14.644531 -19.96875 13.921875 -19.800781 13.078125 -19.46875 C 12.234375 -19.132812 11.40625 -18.632812 10.59375 -17.96875 C 9.789062 -17.300781 9.125 -16.457031 8.59375 -15.4375 C 8.070312 -14.425781 7.8125 -13.21875 7.8125 -11.8125 L 7.8125 -2.4375 C 7.8125 -0.8125 6.9375 0 5.1875 0 C 4.363281 0 3.691406 -0.210938 3.171875 -0.640625 C 2.648438 -1.066406 2.390625 -1.664062 2.390625 -2.4375 L 2.390625 -21.828125 C 2.390625 -22.617188 2.664062 -23.21875 3.21875 -23.625 C 3.769531 -24.039062 4.394531 -24.25 5.09375 -24.25 C 5.757812 -24.25 6.378906 -24.039062 6.953125 -23.625 C 7.523438 -23.21875 7.8125 -22.648438 7.8125 -21.921875 L 7.8125 -21.59375 C 9.175781 -22.863281 10.585938 -23.703125 12.046875 -24.109375 C 13.515625 -24.523438 14.851562 -24.734375 16.0625 -24.734375 Z M 16.0625 -24.734375 "/></g></g></g><g fill="#004aad" fill-opacity="1"><g transform="translate(86.871461, 33.06515)"><g><path d="M 13.109375 -4.53125 C 13.835938 -4.9375 14.492188 -5.078125 15.078125 -4.953125 C 15.671875 -4.828125 16.148438 -4.550781 16.515625 -4.125 C 16.878906 -3.695312 17.0625 -3.195312 17.0625 -2.625 C 17.0625 -2.207031 16.929688 -1.789062 16.671875 -1.375 C 16.421875 -0.96875 16.023438 -0.617188 15.484375 -0.328125 C 14.785156 0.046875 14.148438 0.273438 13.578125 0.359375 C 13.003906 0.441406 12.335938 0.484375 11.578125 0.484375 C 9.515625 0.484375 7.925781 0.0546875 6.8125 -0.796875 C 5.695312 -1.660156 4.929688 -2.773438 4.515625 -4.140625 C 4.109375 -5.515625 3.90625 -6.960938 3.90625 -8.484375 L 3.90625 -19.734375 L 2.09375 -19.734375 C 1.207031 -19.734375 0.546875 -19.96875 0.109375 -20.4375 C -0.316406 -20.914062 -0.53125 -21.425781 -0.53125 -21.96875 C -0.53125 -22.539062 -0.304688 -23.0625 0.140625 -23.53125 C 0.585938 -24.007812 1.238281 -24.25 2.09375 -24.25 L 3.90625 -24.25 L 3.90625 -28.359375 C 3.90625 -29.179688 4.175781 -29.796875 4.71875 -30.203125 C 5.257812 -30.617188 5.878906 -30.828125 6.578125 -30.828125 C 7.242188 -30.828125 7.863281 -30.617188 8.4375 -30.203125 C 9.007812 -29.796875 9.296875 -29.179688 9.296875 -28.359375 L 9.296875 -24.25 L 13.015625 -24.25 C 13.835938 -24.25 14.46875 -24.007812 14.90625 -23.53125 C 15.351562 -23.0625 15.578125 -22.539062 15.578125 -21.96875 C 15.578125 -21.394531 15.351562 -20.878906 14.90625 -20.421875 C 14.46875 -19.960938 13.835938 -19.734375 13.015625 -19.734375 L 9.296875 -19.734375 L 9.296875 -8.484375 C 9.296875 -7.785156 9.34375 -7.109375 9.4375 -6.453125 C 9.53125 -5.804688 9.742188 -5.265625 10.078125 -4.828125 C 10.410156 -4.398438 10.910156 -4.1875 11.578125 -4.1875 C 11.835938 -4.1875 12.117188 -4.226562 12.421875 -4.3125 C 12.722656 -4.394531 12.953125 -4.46875 13.109375 -4.53125 Z M 13.109375 -4.53125 "/></g></g></g><g fill="#004aad" fill-opacity="1"><g transform="translate(103.405275, 33.06515)"><g><path d="M 7.15625 -27.828125 C 7.15625 -27.035156 6.859375 -26.441406 6.265625 -26.046875 C 5.679688 -25.648438 5.054688 -25.453125 4.390625 -25.453125 C 3.691406 -25.453125 3.054688 -25.648438 2.484375 -26.046875 C 1.910156 -26.441406 1.625 -27.035156 1.625 -27.828125 L 1.625 -28.453125 C 1.625 -29.273438 1.910156 -29.875 2.484375 -30.25 C 3.054688 -30.632812 3.691406 -30.828125 4.390625 -30.828125 C 5.054688 -30.828125 5.679688 -30.632812 6.265625 -30.25 C 6.859375 -29.875 7.15625 -29.273438 7.15625 -28.453125 Z M 1.671875 -21.921875 C 1.671875 -22.679688 1.960938 -23.257812 2.546875 -23.65625 C 3.140625 -24.050781 3.753906 -24.25 4.390625 -24.25 C 5.054688 -24.25 5.671875 -24.050781 6.234375 -23.65625 C 6.804688 -23.257812 7.09375 -22.695312 7.09375 -21.96875 L 7.09375 -2.328125 C 7.09375 -1.535156 6.804688 -0.945312 6.234375 -0.5625 C 5.671875 -0.1875 5.054688 0 4.390625 0 C 3.753906 0 3.140625 -0.1875 2.546875 -0.5625 C 1.960938 -0.945312 1.671875 -1.535156 1.671875 -2.328125 Z M 1.671875 -21.921875 "/></g></g></g><g fill="#004aad" fill-opacity="1"><g transform="translate(111.219301, 33.06515)"><g><path d="M 16.0625 -24.734375 C 18.28125 -24.734375 20.164062 -24.25 21.71875 -23.28125 C 23.28125 -22.3125 24.472656 -20.96875 25.296875 -19.25 C 26.128906 -17.539062 26.546875 -15.539062 26.546875 -13.25 L 26.546875 -2.484375 C 26.546875 -1.742188 26.304688 -1.144531 25.828125 -0.6875 C 25.347656 -0.226562 24.679688 0 23.828125 0 C 23.035156 0 22.382812 -0.226562 21.875 -0.6875 C 21.363281 -1.144531 21.109375 -1.742188 21.109375 -2.484375 L 21.109375 -13.34375 C 21.109375 -15.3125 20.640625 -16.90625 19.703125 -18.125 C 18.765625 -19.351562 17.28125 -19.96875 15.25 -19.96875 C 14.644531 -19.96875 13.921875 -19.800781 13.078125 -19.46875 C 12.234375 -19.132812 11.40625 -18.632812 10.59375 -17.96875 C 9.789062 -17.300781 9.125 -16.457031 8.59375 -15.4375 C 8.070312 -14.425781 7.8125 -13.21875 7.8125 -11.8125 L 7.8125 -2.4375 C 7.8125 -0.8125 6.9375 0 5.1875 0 C 4.363281 0 3.691406 -0.210938 3.171875 -0.640625 C 2.648438 -1.066406 2.390625 -1.664062 2.390625 -2.4375 L 2.390625 -21.828125 C 2.390625 -22.617188 2.664062 -23.21875 3.21875 -23.625 C 3.769531 -24.039062 4.394531 -24.25 5.09375 -24.25 C 5.757812 -24.25 6.378906 -24.039062 6.953125 -23.625 C 7.523438 -23.21875 7.8125 -22.648438 7.8125 -21.921875 L 7.8125 -21.59375 C 9.175781 -22.863281 10.585938 -23.703125 12.046875 -24.109375 C 13.515625 -24.523438 14.851562 -24.734375 16.0625 -24.734375 Z M 16.0625 -24.734375 "/></g></g></g><g fill="#004aad" fill-opacity="1"><g transform="translate(140.141874, 33.06515)"><g><path d="M 13.625 -4.234375 C 14.550781 -4.234375 15.457031 -4.359375 16.34375 -4.609375 C 17.238281 -4.867188 18.066406 -5.300781 18.828125 -5.90625 C 19.554688 -6.570312 20.269531 -6.878906 20.96875 -6.828125 C 21.664062 -6.785156 22.242188 -6.535156 22.703125 -6.078125 C 23.171875 -5.617188 23.40625 -5.046875 23.40625 -4.359375 C 23.40625 -3.679688 23.070312 -3.023438 22.40625 -2.390625 C 21.289062 -1.304688 19.96875 -0.546875 18.4375 -0.109375 C 16.914062 0.316406 15.359375 0.515625 13.765625 0.484375 C 11.296875 0.484375 9.113281 -0.0234375 7.21875 -1.046875 C 5.332031 -2.066406 3.851562 -3.476562 2.78125 -5.28125 C 1.71875 -7.09375 1.1875 -9.191406 1.1875 -11.578125 C 1.1875 -14.179688 1.691406 -16.46875 2.703125 -18.4375 C 3.722656 -20.40625 5.160156 -21.945312 7.015625 -23.0625 C 8.878906 -24.175781 11.082031 -24.734375 13.625 -24.734375 C 16.164062 -24.734375 18.328125 -24.21875 20.109375 -23.1875 C 21.890625 -22.15625 23.25 -20.707031 24.1875 -18.84375 C 25.125 -16.988281 25.59375 -14.820312 25.59375 -12.34375 C 25.59375 -11.550781 25.429688 -10.875 25.109375 -10.3125 C 24.796875 -9.757812 23.957031 -9.484375 22.59375 -9.484375 L 6.71875 -9.484375 C 7.164062 -7.929688 8.007812 -6.664062 9.25 -5.6875 C 10.488281 -4.71875 11.945312 -4.234375 13.625 -4.234375 Z M 13.671875 -20.015625 C 11.828125 -20.015625 10.285156 -19.429688 9.046875 -18.265625 C 7.816406 -17.109375 7.023438 -15.59375 6.671875 -13.71875 L 20.546875 -13.71875 C 20.378906 -15.59375 19.753906 -17.109375 18.671875 -18.265625 C 17.597656 -19.429688 15.929688 -20.015625 13.671875 -20.015625 Z M 13.671875 -20.015625 "/></g></g></g><g fill="#004aad" fill-opacity="1"><g transform="translate(167.825576, 33.06515)"><g><path d="M 7.09375 -2.390625 C 7.09375 -1.753906 6.832031 -1.195312 6.3125 -0.71875 C 5.789062 -0.238281 5.148438 0 4.390625 0 C 3.585938 0 2.929688 -0.238281 2.421875 -0.71875 C 1.921875 -1.195312 1.671875 -1.753906 1.671875 -2.390625 L 1.671875 -28.453125 C 1.671875 -29.085938 1.921875 -29.640625 2.421875 -30.109375 C 2.929688 -30.585938 3.585938 -30.828125 4.390625 -30.828125 C 5.148438 -30.828125 5.789062 -30.585938 6.3125 -30.109375 C 6.832031 -29.640625 7.09375 -29.085938 7.09375 -28.453125 Z M 7.09375 -2.390625 "/></g></g></g><path stroke-linecap="round" transform="matrix(0.0141553, 0, 0, -0.0141553, 165.618691, 47.0006)" fill="none" stroke-linejoin="round" d="M 1892.398651 2029.697319 L 1804.920661 2007.344899 L 1727.928992 1851.981781 " stroke="#224c8d" stroke-width="50" stroke-opacity="1" stroke-miterlimit="10"/><path stroke-linecap="round" transform="matrix(0.0141553, 0, 0, -0.0141553, 165.618691, 47.0006)" fill="none" stroke-linejoin="round" d="M 2306.608311 2029.697319 L 2394.086301 2007.344899 L 2471.07797 1851.981781 " stroke="#224c8d" stroke-width="50" stroke-opacity="1" stroke-miterlimit="10"/><path stroke-linecap="round" transform="matrix(0.0141553, 0, 0, -0.0141553, 165.618691, 47.0006)" fill="none" stroke-linejoin="round" d="M 2306.608311 2221.210646 L 2394.086301 2243.28711 L 2471.07797 2398.926183 " stroke="#224c8d" stroke-width="50" stroke-opacity="1" stroke-miterlimit="10"/><path stroke-linecap="round" transform="matrix(0.0141553, 0, 0, -0.0141553, 165.618691, 47.0006)" fill="none" stroke-linejoin="round" d="M 1892.398651 2221.210646 L 1804.920661 2243.28711 L 1727.928992 2398.926183 " stroke="#224c8d" stroke-width="50" stroke-opacity="1" stroke-miterlimit="10"/><path stroke-linecap="round" transform="matrix(0.0141553, 0, 0, -0.0141553, 165.618691, 47.0006)" fill="none" stroke-linejoin="round" d="M 1688.467312 2034.388567 L 1768.770451 2133.732656 L 1892.398651 2140.631552 " stroke="#224c8d" stroke-width="50" stroke-opacity="1" stroke-miterlimit="10"/><path stroke-linecap="round" transform="matrix(0.0141553, 0, 0, -0.0141553, 165.618691, 47.0006)" fill="none" stroke-linejoin="round" d="M 2506.952224 2034.388567 L 2426.925041 2133.732656 L 2303.296842 2140.631552 " stroke="#224c8d" stroke-width="50" stroke-opacity="1" stroke-miterlimit="10"/><path stroke-linecap="round" transform="matrix(0.0141553, 0, 0, -0.0141553, 165.618691, 47.0006)" fill="none" stroke-linejoin="round" d="M 2067.630586 2378.505454 C 2067.630586 2378.505454 2065.422939 2448.598228 2003.608839 2493.303068 " stroke="#224c8d" stroke-width="50" stroke-opacity="1" stroke-miterlimit="10"/><path stroke-linecap="round" transform="matrix(0.0141553, 0, 0, -0.0141553, 165.618691, 47.0006)" fill="none" stroke-linejoin="round" d="M 2126.961083 2378.505454 C 2126.961083 2378.505454 2129.444686 2448.598228 2190.98283 2493.303068 " stroke="#224c8d" stroke-width="50" stroke-opacity="1" stroke-miterlimit="10"/><path fill="#224c8d" d="M 196.75 14.226562 C 196.75 15.023438 196.109375 15.664062 195.316406 15.664062 C 194.519531 15.664062 193.878906 15.023438 193.878906 14.226562 C 193.878906 13.433594 194.519531 12.792969 195.316406 12.792969 C 196.109375 12.792969 196.75 13.433594 196.75 14.226562 " fill-opacity="1" fill-rule="nonzero"/><path stroke-linecap="round" transform="matrix(0.0141553, 0, 0, -0.0141553, 165.618691, 47.0006)" fill="none" stroke-linejoin="round" d="M 2199.261504 2315.311575 C 2199.261504 2259.016591 2154.004752 2213.759839 2097.985724 2213.759839 C 2041.69074 2213.759839 1996.433988 2259.016591 1996.433988 2315.311575 C 1996.433988 2371.330603 2041.69074 2416.587355 2097.985724 2416.587355 C 2154.004752 2416.587355 2199.261504 2371.330603 2199.261504 2315.311575 Z M 2199.261504 2315.311575 " stroke="#224c8d" stroke-width="50" stroke-opacity="1" stroke-miterlimit="10"/><path fill="#6db5e7" d="M 195.316406 21.453125 C 193.515625 21.453125 192.050781 19.992188 192.050781 18.191406 L 192.050781 14.226562 C 192.050781 14.03125 192.210938 13.875 192.40625 13.875 L 198.222656 13.875 C 198.417969 13.875 198.578125 14.03125 198.578125 14.226562 L 198.578125 18.191406 C 198.578125 19.992188 197.113281 21.453125 195.316406 21.453125 " fill-opacity="1" fill-rule="nonzero"/><path fill="#224c8d" d="M 198.222656 13.519531 L 192.40625 13.519531 C 192.015625 13.519531 191.695312 13.835938 191.695312 14.226562 L 191.695312 18.191406 C 191.695312 20.1875 193.320312 21.808594 195.316406 21.808594 C 197.308594 21.808594 198.929688 20.1875 198.929688 18.191406 L 198.929688 14.226562 C 198.929688 13.835938 198.613281 13.519531 198.222656 13.519531 Z M 198.222656 14.226562 L 198.222656 18.191406 C 198.222656 19.800781 196.921875 21.101562 195.316406 21.101562 C 193.707031 21.101562 192.40625 19.800781 192.40625 18.191406 L 192.40625 14.226562 L 198.222656 14.226562 " fill-opacity="1" fill-rule="nonzero"/><path stroke-linecap="round" transform="matrix(0.0141553, 0, 0, -0.0141553, 165.618691, 47.0006)" fill="none" stroke-linejoin="round" d="M 2097.985724 2315.311575 L 2097.985724 2042.11533 " stroke="#224c8d" stroke-width="50" stroke-opacity="1" stroke-miterlimit="10"/><path stroke-linecap="round" transform="matrix(0.0141553, 0, 0, -0.0141553, 165.618691, 47.0006)" fill="none" stroke-linejoin="round" d="M 2273.493615 1922.626467 L 2097.985724 2047.634446 L 1926.065259 1922.626467 " stroke="#224c8d" stroke-width="50" stroke-opacity="1" stroke-miterlimit="10"/><path stroke-linecap="butt" transform="matrix(0.0141553, 0, 0, -0.0141553, 165.618691, 47.0006)" fill="none" stroke-linejoin="round" d="M 1418.306581 2107.240899 C 1418.306581 1731.941007 1722.409876 1427.837712 2097.985724 1427.837712 C 2473.285616 1427.837712 2777.388911 1731.941007 2777.388911 2107.240899 C 2777.388911 2482.540792 2473.285616 2786.920043 2097.985724 2786.920043 C 1722.409876 2786.920043 1418.306581 2482.540792 1418.306581 2107.240899 Z M 1418.306581 2107.240899 " stroke="#224c8d" stroke-width="37.544998" stroke-opacity="1" stroke-miterlimit="10"/><path stroke-linecap="butt" transform="matrix(0.0141553, 0, 0, -0.0141553, 165.618691, 47.0006)" fill="none" stroke-linejoin="round" d="M 1163.047463 2107.240899 C 1163.047463 1590.927592 1581.39646 1172.302638 2097.985724 1172.302638 C 2614.299032 1172.302638 3032.648029 1590.927592 3032.648029 2107.240899 C 3032.648029 2623.554207 2614.299032 3042.179161 2097.985724 3042.179161 C 1581.39646 3042.179161 1163.047463 2623.554207 1163.047463 2107.240899 Z M 1163.047463 2107.240899 " stroke="#224c8d" stroke-width="51.650002" stroke-opacity="1" stroke-miterlimit="10"/><g clip-path="url(#4544a5f340)"><path stroke-linecap="round" transform="matrix(0.0141553, 0, 0, -0.0141553, 165.618691, 47.0006)" fill="none" stroke-linejoin="round" d="M 2116.198807 2696.682495 L 2116.198807 3259.908289 " stroke="#224c8d" stroke-width="51.650002" stroke-opacity="1" stroke-miterlimit="10"/></g><g clip-path="url(#121ccb2ff9)"><path stroke-linecap="round" transform="matrix(0.0141553, 0, 0, -0.0141553, 165.618691, 47.0006)" fill="none" stroke-linejoin="round" d="M 2135.791669 992.103499 L 2135.791669 1555.329293 " stroke="#224c8d" stroke-width="51.650002" stroke-opacity="1" stroke-miterlimit="10"/></g><g clip-path="url(#e1545df241)"><path stroke-linecap="round" transform="matrix(0.0141553, 0, 0, -0.0141553, 165.618691, 47.0006)" fill="none" stroke-linejoin="round" d="M 1555.180659 2116.347441 L 992.230821 2116.347441 " stroke="#224c8d" stroke-width="51.650002" stroke-opacity="1" stroke-miterlimit="10"/></g><g clip-path="url(#4909215b9f)"><path stroke-linecap="round" transform="matrix(0.0141553, 0, 0, -0.0141553, 165.618691, 47.0006)" fill="none" stroke-linejoin="round" d="M 3259.759655 2135.664347 L 2696.809817 2135.664347 " stroke="#224c8d" stroke-width="51.650002" stroke-opacity="1" stroke-miterlimit="10"/></g><g fill="#38b6ff" fill-opacity="1"><g transform="translate(45.654916, 45.930563)"><g><path d="M 8.515625 -9.765625 L 4.78125 0 L 4.09375 0 L 0.375 -9.765625 L 1.0625 -9.765625 L 4.4375 -0.734375 L 7.84375 -9.765625 Z M 8.515625 -9.765625 "/></g></g></g><g fill="#38b6ff" fill-opacity="1"><g transform="translate(54.011061, 45.930563)"><g><path d="M 7.515625 -7.546875 L 7.515625 0 L 6.890625 0 L 6.890625 -1.640625 C 6.679688 -1.066406 6.328125 -0.628906 5.828125 -0.328125 C 5.335938 -0.0234375 4.769531 0.125 4.125 0.125 C 3.226562 0.125 2.492188 -0.148438 1.921875 -0.703125 C 1.359375 -1.253906 1.078125 -2.070312 1.078125 -3.15625 L 1.078125 -7.546875 L 1.6875 -7.546875 L 1.6875 -3.203125 C 1.6875 -2.296875 1.910156 -1.601562 2.359375 -1.125 C 2.816406 -0.65625 3.4375 -0.421875 4.21875 -0.421875 C 5.03125 -0.421875 5.675781 -0.675781 6.15625 -1.1875 C 6.644531 -1.707031 6.890625 -2.476562 6.890625 -3.5 L 6.890625 -7.546875 Z M 7.515625 -7.546875 "/></g></g></g><g fill="#38b6ff" fill-opacity="1"><g transform="translate(62.144745, 45.930563)"><g><path d="M 1.765625 -10.296875 L 1.765625 0 L 1.140625 0 L 1.140625 -10.296875 Z M 1.765625 -10.296875 "/></g></g></g><g fill="#38b6ff" fill-opacity="1"><g transform="translate(64.536083, 45.930563)"><g><path d="M 4.546875 -7.703125 C 5.441406 -7.703125 6.171875 -7.425781 6.734375 -6.875 C 7.304688 -6.320312 7.59375 -5.503906 7.59375 -4.421875 L 7.59375 0 L 6.984375 0 L 6.984375 -4.375 C 6.984375 -5.28125 6.753906 -5.96875 6.296875 -6.4375 C 5.847656 -6.914062 5.234375 -7.15625 4.453125 -7.15625 C 3.628906 -7.15625 2.972656 -6.894531 2.484375 -6.375 C 2.003906 -5.863281 1.765625 -5.097656 1.765625 -4.078125 L 1.765625 0 L 1.140625 0 L 1.140625 -7.546875 L 1.765625 -7.546875 L 1.765625 -5.953125 C 1.972656 -6.515625 2.328125 -6.945312 2.828125 -7.25 C 3.328125 -7.550781 3.898438 -7.703125 4.546875 -7.703125 Z M 4.546875 -7.703125 "/></g></g></g><g fill="#38b6ff" fill-opacity="1"><g transform="translate(72.669767, 45.930563)"><g><path d="M 7.9375 -4.28125 C 7.9375 -3.945312 7.925781 -3.695312 7.90625 -3.53125 L 1.390625 -3.53125 C 1.410156 -2.851562 1.554688 -2.28125 1.828125 -1.8125 C 2.109375 -1.351562 2.472656 -1.007812 2.921875 -0.78125 C 3.378906 -0.550781 3.878906 -0.4375 4.421875 -0.4375 C 5.160156 -0.4375 5.78125 -0.617188 6.28125 -0.984375 C 6.78125 -1.347656 7.097656 -1.84375 7.234375 -2.46875 L 7.890625 -2.46875 C 7.734375 -1.707031 7.347656 -1.085938 6.734375 -0.609375 C 6.128906 -0.128906 5.359375 0.109375 4.421875 0.109375 C 3.710938 0.109375 3.082031 -0.046875 2.53125 -0.359375 C 1.976562 -0.671875 1.539062 -1.117188 1.21875 -1.703125 C 0.90625 -2.296875 0.75 -2.988281 0.75 -3.78125 C 0.75 -4.570312 0.90625 -5.257812 1.21875 -5.84375 C 1.53125 -6.425781 1.960938 -6.867188 2.515625 -7.171875 C 3.066406 -7.484375 3.703125 -7.640625 4.421875 -7.640625 C 5.140625 -7.640625 5.765625 -7.484375 6.296875 -7.171875 C 6.835938 -6.867188 7.242188 -6.457031 7.515625 -5.9375 C 7.796875 -5.425781 7.9375 -4.875 7.9375 -4.28125 Z M 7.3125 -4.046875 C 7.34375 -4.710938 7.222656 -5.273438 6.953125 -5.734375 C 6.691406 -6.203125 6.332031 -6.550781 5.875 -6.78125 C 5.425781 -7.007812 4.9375 -7.125 4.40625 -7.125 C 3.875 -7.125 3.382812 -7.007812 2.9375 -6.78125 C 2.488281 -6.550781 2.125 -6.203125 1.84375 -5.734375 C 1.5625 -5.273438 1.410156 -4.710938 1.390625 -4.046875 Z M 7.3125 -4.046875 "/></g></g></g><g fill="#38b6ff" fill-opacity="1"><g transform="translate(80.831256, 45.930563)"><g><path d="M 1.765625 -6 C 1.953125 -6.550781 2.28125 -6.972656 2.75 -7.265625 C 3.226562 -7.554688 3.832031 -7.703125 4.5625 -7.703125 L 4.5625 -7.046875 L 4.359375 -7.046875 C 3.609375 -7.046875 2.988281 -6.832031 2.5 -6.40625 C 2.007812 -5.988281 1.765625 -5.304688 1.765625 -4.359375 L 1.765625 0 L 1.140625 0 L 1.140625 -7.546875 L 1.765625 -7.546875 Z M 1.765625 -6 "/></g></g></g><g fill="#38b6ff" fill-opacity="1"><g transform="translate(85.169148, 45.930563)"><g><path d="M 0.75 -3.78125 C 0.75 -4.5625 0.90625 -5.242188 1.21875 -5.828125 C 1.53125 -6.410156 1.960938 -6.859375 2.515625 -7.171875 C 3.066406 -7.484375 3.691406 -7.640625 4.390625 -7.640625 C 5.191406 -7.640625 5.867188 -7.445312 6.421875 -7.0625 C 6.984375 -6.675781 7.375 -6.179688 7.59375 -5.578125 L 7.59375 -7.546875 L 8.21875 -7.546875 L 8.21875 0 L 7.59375 0 L 7.59375 -1.984375 C 7.375 -1.378906 6.984375 -0.878906 6.421875 -0.484375 C 5.859375 -0.0859375 5.179688 0.109375 4.390625 0.109375 C 3.691406 0.109375 3.066406 -0.046875 2.515625 -0.359375 C 1.960938 -0.679688 1.53125 -1.132812 1.21875 -1.71875 C 0.90625 -2.3125 0.75 -3 0.75 -3.78125 Z M 7.59375 -3.78125 C 7.59375 -4.4375 7.453125 -5.015625 7.171875 -5.515625 C 6.898438 -6.023438 6.53125 -6.414062 6.0625 -6.6875 C 5.59375 -6.96875 5.066406 -7.109375 4.484375 -7.109375 C 3.867188 -7.109375 3.328125 -6.972656 2.859375 -6.703125 C 2.398438 -6.441406 2.039062 -6.0625 1.78125 -5.5625 C 1.519531 -5.0625 1.390625 -4.46875 1.390625 -3.78125 C 1.390625 -3.09375 1.519531 -2.5 1.78125 -2 C 2.039062 -1.5 2.40625 -1.113281 2.875 -0.84375 C 3.34375 -0.570312 3.878906 -0.4375 4.484375 -0.4375 C 5.066406 -0.4375 5.59375 -0.570312 6.0625 -0.84375 C 6.539062 -1.125 6.914062 -1.515625 7.1875 -2.015625 C 7.457031 -2.523438 7.59375 -3.113281 7.59375 -3.78125 Z M 7.59375 -3.78125 "/></g></g></g><g fill="#38b6ff" fill-opacity="1"><g transform="translate(93.99803, 45.930563)"><g><path d="M 1.765625 -5.5625 C 1.992188 -6.175781 2.382812 -6.675781 2.9375 -7.0625 C 3.5 -7.445312 4.175781 -7.640625 4.96875 -7.640625 C 5.664062 -7.640625 6.289062 -7.484375 6.84375 -7.171875 C 7.394531 -6.859375 7.828125 -6.410156 8.140625 -5.828125 C 8.453125 -5.242188 8.609375 -4.5625 8.609375 -3.78125 C 8.609375 -3 8.453125 -2.3125 8.140625 -1.71875 C 7.828125 -1.132812 7.394531 -0.679688 6.84375 -0.359375 C 6.289062 -0.046875 5.664062 0.109375 4.96875 0.109375 C 4.175781 0.109375 3.5 -0.0820312 2.9375 -0.46875 C 2.375 -0.863281 1.984375 -1.363281 1.765625 -1.96875 L 1.765625 0 L 1.140625 0 L 1.140625 -10.296875 L 1.765625 -10.296875 Z M 7.96875 -3.78125 C 7.96875 -4.46875 7.835938 -5.0625 7.578125 -5.5625 C 7.316406 -6.0625 6.953125 -6.441406 6.484375 -6.703125 C 6.015625 -6.972656 5.472656 -7.109375 4.859375 -7.109375 C 4.273438 -7.109375 3.75 -6.96875 3.28125 -6.6875 C 2.8125 -6.414062 2.441406 -6.023438 2.171875 -5.515625 C 1.898438 -5.015625 1.765625 -4.4375 1.765625 -3.78125 C 1.765625 -3.113281 1.898438 -2.523438 2.171875 -2.015625 C 2.441406 -1.515625 2.8125 -1.125 3.28125 -0.84375 C 3.75 -0.570312 4.273438 -0.4375 4.859375 -0.4375 C 5.472656 -0.4375 6.015625 -0.570312 6.484375 -0.84375 C 6.953125 -1.113281 7.316406 -1.5 7.578125 -2 C 7.835938 -2.5 7.96875 -3.09375 7.96875 -3.78125 Z M 7.96875 -3.78125 "/></g></g></g><g fill="#38b6ff" fill-opacity="1"><g transform="translate(102.826912, 45.930563)"><g><path d="M 1.453125 -9.234375 C 1.304688 -9.234375 1.179688 -9.28125 1.078125 -9.375 C 0.984375 -9.476562 0.9375 -9.613281 0.9375 -9.78125 C 0.9375 -9.9375 0.984375 -10.0625 1.078125 -10.15625 C 1.179688 -10.257812 1.304688 -10.3125 1.453125 -10.3125 C 1.609375 -10.3125 1.734375 -10.257812 1.828125 -10.15625 C 1.929688 -10.0625 1.984375 -9.9375 1.984375 -9.78125 C 1.984375 -9.613281 1.929688 -9.476562 1.828125 -9.375 C 1.734375 -9.28125 1.609375 -9.234375 1.453125 -9.234375 Z M 1.765625 -7.546875 L 1.765625 0 L 1.140625 0 L 1.140625 -7.546875 Z M 1.765625 -7.546875 "/></g></g></g><g fill="#38b6ff" fill-opacity="1"><g transform="translate(105.218249, 45.930563)"><g><path d="M 1.765625 -10.296875 L 1.765625 0 L 1.140625 0 L 1.140625 -10.296875 Z M 1.765625 -10.296875 "/></g></g></g><g fill="#38b6ff" fill-opacity="1"><g transform="translate(107.609585, 45.930563)"><g><path d="M 1.453125 -9.234375 C 1.304688 -9.234375 1.179688 -9.28125 1.078125 -9.375 C 0.984375 -9.476562 0.9375 -9.613281 0.9375 -9.78125 C 0.9375 -9.9375 0.984375 -10.0625 1.078125 -10.15625 C 1.179688 -10.257812 1.304688 -10.3125 1.453125 -10.3125 C 1.609375 -10.3125 1.734375 -10.257812 1.828125 -10.15625 C 1.929688 -10.0625 1.984375 -9.9375 1.984375 -9.78125 C 1.984375 -9.613281 1.929688 -9.476562 1.828125 -9.375 C 1.734375 -9.28125 1.609375 -9.234375 1.453125 -9.234375 Z M 1.765625 -7.546875 L 1.765625 0 L 1.140625 0 L 1.140625 -7.546875 Z M 1.765625 -7.546875 "/></g></g></g><g fill="#38b6ff" fill-opacity="1"><g transform="translate(110.000922, 45.930563)"><g><path d="M 2.078125 -7.015625 L 2.078125 -2.015625 C 2.078125 -1.460938 2.175781 -1.082031 2.375 -0.875 C 2.582031 -0.664062 2.945312 -0.5625 3.46875 -0.5625 L 4.3125 -0.5625 L 4.3125 0 L 3.359375 0 C 2.703125 0 2.21875 -0.15625 1.90625 -0.46875 C 1.601562 -0.78125 1.453125 -1.296875 1.453125 -2.015625 L 1.453125 -7.015625 L 0.3125 -7.015625 L 0.3125 -7.546875 L 1.453125 -7.546875 L 1.453125 -9.46875 L 2.078125 -9.46875 L 2.078125 -7.546875 L 4.3125 -7.546875 L 4.3125 -7.015625 Z M 2.078125 -7.015625 "/></g></g></g><g clip-path="url(#804bc58bb3)"><g fill="#38b6ff" fill-opacity="1"><g transform="translate(114.297105, 45.930563)"><g><path d="M 7.03125 -7.546875 L 2.640625 3.546875 L 2 3.546875 L 3.40625 0 L 0.234375 -7.546875 L 0.921875 -7.546875 L 3.75 -0.6875 L 6.390625 -7.546875 Z M 7.03125 -7.546875 "/></g></g></g></g><g fill="#38b6ff" fill-opacity="1"><g transform="translate(121.054292, 45.930563)"><g/></g></g><g fill="#38b6ff" fill-opacity="1"><g transform="translate(124.446718, 45.930563)"><g><path d="M 10.25 -9.546875 L 10.25 0 L 9.625 0 L 9.625 -8.25 L 5.953125 0 L 5.453125 0 L 1.765625 -8.25 L 1.765625 0 L 1.140625 0 L 1.140625 -9.546875 L 1.8125 -9.546875 L 5.703125 -0.828125 L 9.59375 -9.546875 Z M 10.25 -9.546875 "/></g></g></g><g fill="#38b6ff" fill-opacity="1"><g transform="translate(135.319478, 45.930563)"><g><path d="M 0.75 -3.78125 C 0.75 -4.5625 0.90625 -5.242188 1.21875 -5.828125 C 1.53125 -6.410156 1.960938 -6.859375 2.515625 -7.171875 C 3.066406 -7.484375 3.691406 -7.640625 4.390625 -7.640625 C 5.191406 -7.640625 5.867188 -7.445312 6.421875 -7.0625 C 6.984375 -6.675781 7.375 -6.179688 7.59375 -5.578125 L 7.59375 -7.546875 L 8.21875 -7.546875 L 8.21875 0 L 7.59375 0 L 7.59375 -1.984375 C 7.375 -1.378906 6.984375 -0.878906 6.421875 -0.484375 C 5.859375 -0.0859375 5.179688 0.109375 4.390625 0.109375 C 3.691406 0.109375 3.066406 -0.046875 2.515625 -0.359375 C 1.960938 -0.679688 1.53125 -1.132812 1.21875 -1.71875 C 0.90625 -2.3125 0.75 -3 0.75 -3.78125 Z M 7.59375 -3.78125 C 7.59375 -4.4375 7.453125 -5.015625 7.171875 -5.515625 C 6.898438 -6.023438 6.53125 -6.414062 6.0625 -6.6875 C 5.59375 -6.96875 5.066406 -7.109375 4.484375 -7.109375 C 3.867188 -7.109375 3.328125 -6.972656 2.859375 -6.703125 C 2.398438 -6.441406 2.039062 -6.0625 1.78125 -5.5625 C 1.519531 -5.0625 1.390625 -4.46875 1.390625 -3.78125 C 1.390625 -3.09375 1.519531 -2.5 1.78125 -2 C 2.039062 -1.5 2.40625 -1.113281 2.875 -0.84375 C 3.34375 -0.570312 3.878906 -0.4375 4.484375 -0.4375 C 5.066406 -0.4375 5.59375 -0.570312 6.0625 -0.84375 C 6.539062 -1.125 6.914062 -1.515625 7.1875 -2.015625 C 7.457031 -2.523438 7.59375 -3.113281 7.59375 -3.78125 Z M 7.59375 -3.78125 "/></g></g></g><g fill="#38b6ff" fill-opacity="1"><g transform="translate(144.148366, 45.930563)"><g><path d="M 4.546875 -7.703125 C 5.441406 -7.703125 6.171875 -7.425781 6.734375 -6.875 C 7.304688 -6.320312 7.59375 -5.503906 7.59375 -4.421875 L 7.59375 0 L 6.984375 0 L 6.984375 -4.375 C 6.984375 -5.28125 6.753906 -5.96875 6.296875 -6.4375 C 5.847656 -6.914062 5.234375 -7.15625 4.453125 -7.15625 C 3.628906 -7.15625 2.972656 -6.894531 2.484375 -6.375 C 2.003906 -5.863281 1.765625 -5.097656 1.765625 -4.078125 L 1.765625 0 L 1.140625 0 L 1.140625 -7.546875 L 1.765625 -7.546875 L 1.765625 -5.953125 C 1.972656 -6.515625 2.328125 -6.945312 2.828125 -7.25 C 3.328125 -7.550781 3.898438 -7.703125 4.546875 -7.703125 Z M 4.546875 -7.703125 "/></g></g></g><g fill="#38b6ff" fill-opacity="1"><g transform="translate(152.282048, 45.930563)"><g><path d="M 0.75 -3.78125 C 0.75 -4.5625 0.90625 -5.242188 1.21875 -5.828125 C 1.53125 -6.410156 1.960938 -6.859375 2.515625 -7.171875 C 3.066406 -7.484375 3.691406 -7.640625 4.390625 -7.640625 C 5.191406 -7.640625 5.867188 -7.445312 6.421875 -7.0625 C 6.984375 -6.675781 7.375 -6.179688 7.59375 -5.578125 L 7.59375 -7.546875 L 8.21875 -7.546875 L 8.21875 0 L 7.59375 0 L 7.59375 -1.984375 C 7.375 -1.378906 6.984375 -0.878906 6.421875 -0.484375 C 5.859375 -0.0859375 5.179688 0.109375 4.390625 0.109375 C 3.691406 0.109375 3.066406 -0.046875 2.515625 -0.359375 C 1.960938 -0.679688 1.53125 -1.132812 1.21875 -1.71875 C 0.90625 -2.3125 0.75 -3 0.75 -3.78125 Z M 7.59375 -3.78125 C 7.59375 -4.4375 7.453125 -5.015625 7.171875 -5.515625 C 6.898438 -6.023438 6.53125 -6.414062 6.0625 -6.6875 C 5.59375 -6.96875 5.066406 -7.109375 4.484375 -7.109375 C 3.867188 -7.109375 3.328125 -6.972656 2.859375 -6.703125 C 2.398438 -6.441406 2.039062 -6.0625 1.78125 -5.5625 C 1.519531 -5.0625 1.390625 -4.46875 1.390625 -3.78125 C 1.390625 -3.09375 1.519531 -2.5 1.78125 -2 C 2.039062 -1.5 2.40625 -1.113281 2.875 -0.84375 C 3.34375 -0.570312 3.878906 -0.4375 4.484375 -0.4375 C 5.066406 -0.4375 5.59375 -0.570312 6.0625 -0.84375 C 6.539062 -1.125 6.914062 -1.515625 7.1875 -2.015625 C 7.457031 -2.523438 7.59375 -3.113281 7.59375 -3.78125 Z M 7.59375 -3.78125 "/></g></g></g><g clip-path="url(#eeddbeb305)"><g fill="#38b6ff" fill-opacity="1"><g transform="translate(161.11093, 45.930563)"><g><path d="M 4.390625 -7.640625 C 5.191406 -7.640625 5.867188 -7.445312 6.421875 -7.0625 C 6.984375 -6.6875 7.375 -6.195312 7.59375 -5.59375 L 7.59375 -7.546875 L 8.21875 -7.546875 L 8.21875 0.234375 C 8.21875 0.929688 8.0625 1.539062 7.75 2.0625 C 7.445312 2.582031 7.035156 2.984375 6.515625 3.265625 C 6.003906 3.554688 5.425781 3.703125 4.78125 3.703125 C 3.832031 3.703125 3.046875 3.472656 2.421875 3.015625 C 1.804688 2.566406 1.398438 1.957031 1.203125 1.1875 L 1.828125 1.1875 C 2.015625 1.78125 2.363281 2.253906 2.875 2.609375 C 3.382812 2.972656 4.019531 3.15625 4.78125 3.15625 C 5.3125 3.15625 5.789062 3.035156 6.21875 2.796875 C 6.644531 2.566406 6.976562 2.226562 7.21875 1.78125 C 7.46875 1.34375 7.59375 0.828125 7.59375 0.234375 L 7.59375 -1.96875 C 7.375 -1.375 6.984375 -0.878906 6.421875 -0.484375 C 5.859375 -0.0859375 5.179688 0.109375 4.390625 0.109375 C 3.691406 0.109375 3.066406 -0.046875 2.515625 -0.359375 C 1.960938 -0.679688 1.53125 -1.132812 1.21875 -1.71875 C 0.90625 -2.3125 0.75 -3 0.75 -3.78125 C 0.75 -4.5625 0.90625 -5.242188 1.21875 -5.828125 C 1.53125 -6.410156 1.960938 -6.859375 2.515625 -7.171875 C 3.066406 -7.484375 3.691406 -7.640625 4.390625 -7.640625 Z M 7.59375 -3.78125 C 7.59375 -4.4375 7.453125 -5.015625 7.171875 -5.515625 C 6.898438 -6.023438 6.53125 -6.414062 6.0625 -6.6875 C 5.59375 -6.96875 5.066406 -7.109375 4.484375 -7.109375 C 3.867188 -7.109375 3.328125 -6.972656 2.859375 -6.703125 C 2.398438 -6.441406 2.039062 -6.0625 1.78125 -5.5625 C 1.519531 -5.0625 1.390625 -4.46875 1.390625 -3.78125 C 1.390625 -3.09375 1.519531 -2.5 1.78125 -2 C 2.039062 -1.5 2.40625 -1.113281 2.875 -0.84375 C 3.34375 -0.570312 3.878906 -0.4375 4.484375 -0.4375 C 5.066406 -0.4375 5.59375 -0.570312 6.0625 -0.84375 C 6.539062 -1.125 6.914062 -1.515625 7.1875 -2.015625 C 7.457031 -2.523438 7.59375 -3.113281 7.59375 -3.78125 Z M 7.59375 -3.78125 "/></g></g></g></g><g fill="#38b6ff" fill-opacity="1"><g transform="translate(169.939812, 45.930563)"><g><path d="M 7.9375 -4.28125 C 7.9375 -3.945312 7.925781 -3.695312 7.90625 -3.53125 L 1.390625 -3.53125 C 1.410156 -2.851562 1.554688 -2.28125 1.828125 -1.8125 C 2.109375 -1.351562 2.472656 -1.007812 2.921875 -0.78125 C 3.378906 -0.550781 3.878906 -0.4375 4.421875 -0.4375 C 5.160156 -0.4375 5.78125 -0.617188 6.28125 -0.984375 C 6.78125 -1.347656 7.097656 -1.84375 7.234375 -2.46875 L 7.890625 -2.46875 C 7.734375 -1.707031 7.347656 -1.085938 6.734375 -0.609375 C 6.128906 -0.128906 5.359375 0.109375 4.421875 0.109375 C 3.710938 0.109375 3.082031 -0.046875 2.53125 -0.359375 C 1.976562 -0.671875 1.539062 -1.117188 1.21875 -1.703125 C 0.90625 -2.296875 0.75 -2.988281 0.75 -3.78125 C 0.75 -4.570312 0.90625 -5.257812 1.21875 -5.84375 C 1.53125 -6.425781 1.960938 -6.867188 2.515625 -7.171875 C 3.066406 -7.484375 3.703125 -7.640625 4.421875 -7.640625 C 5.140625 -7.640625 5.765625 -7.484375 6.296875 -7.171875 C 6.835938 -6.867188 7.242188 -6.457031 7.515625 -5.9375 C 7.796875 -5.425781 7.9375 -4.875 7.9375 -4.28125 Z M 7.3125 -4.046875 C 7.34375 -4.710938 7.222656 -5.273438 6.953125 -5.734375 C 6.691406 -6.203125 6.332031 -6.550781 5.875 -6.78125 C 5.425781 -7.007812 4.9375 -7.125 4.40625 -7.125 C 3.875 -7.125 3.382812 -7.007812 2.9375 -6.78125 C 2.488281 -6.550781 2.125 -6.203125 1.84375 -5.734375 C 1.5625 -5.273438 1.410156 -4.710938 1.390625 -4.046875 Z M 7.3125 -4.046875 "/></g></g></g><g fill="#38b6ff" fill-opacity="1"><g transform="translate(178.101301, 45.930563)"><g><path d="M 10.0625 -7.703125 C 10.925781 -7.703125 11.628906 -7.425781 12.171875 -6.875 C 12.722656 -6.320312 13 -5.503906 13 -4.421875 L 13 0 L 12.390625 0 L 12.390625 -4.375 C 12.390625 -5.28125 12.171875 -5.96875 11.734375 -6.4375 C 11.304688 -6.914062 10.71875 -7.15625 9.96875 -7.15625 C 9.1875 -7.15625 8.5625 -6.882812 8.09375 -6.34375 C 7.625 -5.8125 7.390625 -5.035156 7.390625 -4.015625 L 7.390625 0 L 6.765625 0 L 6.765625 -4.375 C 6.765625 -5.28125 6.550781 -5.96875 6.125 -6.4375 C 5.695312 -6.914062 5.109375 -7.15625 4.359375 -7.15625 C 3.578125 -7.15625 2.945312 -6.882812 2.46875 -6.34375 C 2 -5.8125 1.765625 -5.035156 1.765625 -4.015625 L 1.765625 0 L 1.140625 0 L 1.140625 -7.546875 L 1.765625 -7.546875 L 1.765625 -5.90625 C 1.972656 -6.5 2.316406 -6.945312 2.796875 -7.25 C 3.273438 -7.550781 3.828125 -7.703125 4.453125 -7.703125 C 5.140625 -7.703125 5.726562 -7.523438 6.21875 -7.171875 C 6.71875 -6.816406 7.0625 -6.289062 7.25 -5.59375 C 7.425781 -6.289062 7.765625 -6.816406 8.265625 -7.171875 C 8.773438 -7.523438 9.375 -7.703125 10.0625 -7.703125 Z M 10.0625 -7.703125 "/></g></g></g><g fill="#38b6ff" fill-opacity="1"><g transform="translate(191.657525, 45.930563)"><g><path d="M 7.9375 -4.28125 C 7.9375 -3.945312 7.925781 -3.695312 7.90625 -3.53125 L 1.390625 -3.53125 C 1.410156 -2.851562 1.554688 -2.28125 1.828125 -1.8125 C 2.109375 -1.351562 2.472656 -1.007812 2.921875 -0.78125 C 3.378906 -0.550781 3.878906 -0.4375 4.421875 -0.4375 C 5.160156 -0.4375 5.78125 -0.617188 6.28125 -0.984375 C 6.78125 -1.347656 7.097656 -1.84375 7.234375 -2.46875 L 7.890625 -2.46875 C 7.734375 -1.707031 7.347656 -1.085938 6.734375 -0.609375 C 6.128906 -0.128906 5.359375 0.109375 4.421875 0.109375 C 3.710938 0.109375 3.082031 -0.046875 2.53125 -0.359375 C 1.976562 -0.671875 1.539062 -1.117188 1.21875 -1.703125 C 0.90625 -2.296875 0.75 -2.988281 0.75 -3.78125 C 0.75 -4.570312 0.90625 -5.257812 1.21875 -5.84375 C 1.53125 -6.425781 1.960938 -6.867188 2.515625 -7.171875 C 3.066406 -7.484375 3.703125 -7.640625 4.421875 -7.640625 C 5.140625 -7.640625 5.765625 -7.484375 6.296875 -7.171875 C 6.835938 -6.867188 7.242188 -6.457031 7.515625 -5.9375 C 7.796875 -5.425781 7.9375 -4.875 7.9375 -4.28125 Z M 7.3125 -4.046875 C 7.34375 -4.710938 7.222656 -5.273438 6.953125 -5.734375 C 6.691406 -6.203125 6.332031 -6.550781 5.875 -6.78125 C 5.425781 -7.007812 4.9375 -7.125 4.40625 -7.125 C 3.875 -7.125 3.382812 -7.007812 2.9375 -6.78125 C 2.488281 -6.550781 2.125 -6.203125 1.84375 -5.734375 C 1.5625 -5.273438 1.410156 -4.710938 1.390625 -4.046875 Z M 7.3125 -4.046875 "/></g></g></g><g fill="#38b6ff" fill-opacity="1"><g transform="translate(199.819014, 45.930563)"><g><path d="M 4.546875 -7.703125 C 5.441406 -7.703125 6.171875 -7.425781 6.734375 -6.875 C 7.304688 -6.320312 7.59375 -5.503906 7.59375 -4.421875 L 7.59375 0 L 6.984375 0 L 6.984375 -4.375 C 6.984375 -5.28125 6.753906 -5.96875 6.296875 -6.4375 C 5.847656 -6.914062 5.234375 -7.15625 4.453125 -7.15625 C 3.628906 -7.15625 2.972656 -6.894531 2.484375 -6.375 C 2.003906 -5.863281 1.765625 -5.097656 1.765625 -4.078125 L 1.765625 0 L 1.140625 0 L 1.140625 -7.546875 L 1.765625 -7.546875 L 1.765625 -5.953125 C 1.972656 -6.515625 2.328125 -6.945312 2.828125 -7.25 C 3.328125 -7.550781 3.898438 -7.703125 4.546875 -7.703125 Z M 4.546875 -7.703125 "/></g></g></g><g fill="#38b6ff" fill-opacity="1"><g transform="translate(207.952697, 45.930563)"><g><path d="M 2.078125 -7.015625 L 2.078125 -2.015625 C 2.078125 -1.460938 2.175781 -1.082031 2.375 -0.875 C 2.582031 -0.664062 2.945312 -0.5625 3.46875 -0.5625 L 4.3125 -0.5625 L 4.3125 0 L 3.359375 0 C 2.703125 0 2.21875 -0.15625 1.90625 -0.46875 C 1.601562 -0.78125 1.453125 -1.296875 1.453125 -2.015625 L 1.453125 -7.015625 L 0.3125 -7.015625 L 0.3125 -7.546875 L 1.453125 -7.546875 L 1.453125 -9.46875 L 2.078125 -9.46875 L 2.078125 -7.546875 L 4.3125 -7.546875 L 4.3125 -7.015625 Z M 2.078125 -7.015625 "/></g></g></g><g clip-path="url(#30ff6a4a5f)"><g clip-path="url(#74cc7f3d3c)"><g clip-path="url(#64d8121202)"><path fill="#004aad" d="M 211.378906 8.304688 C 211.234375 7.933594 210.816406 7.746094 210.441406 7.890625 L 208.355469 8.691406 C 208.488281 9.160156 208.554688 9.65625 208.558594 10.164062 L 210.960938 9.238281 C 211.335938 9.097656 211.519531 8.679688 211.378906 8.304688 " fill-opacity="1" fill-rule="nonzero"/></g></g></g><g clip-path="url(#99a4ef0dd1)"><g clip-path="url(#53a34627dc)"><g clip-path="url(#47844f48ed)"><path fill="#004aad" d="M 205.835938 3.015625 L 204.46875 5.195312 C 204.714844 5.242188 204.957031 5.304688 205.195312 5.386719 L 204.960938 6.070312 L 205.195312 5.386719 C 205.429688 5.464844 205.65625 5.5625 205.875 5.675781 L 207.0625 3.785156 C 207.273438 3.445312 207.171875 3 206.832031 2.789062 C 206.496094 2.574219 206.046875 2.675781 205.835938 3.015625 " fill-opacity="1" fill-rule="nonzero"/></g></g></g><g clip-path="url(#10ce16a4a7)"><g clip-path="url(#3ebe6c66d2)"><g clip-path="url(#f00dffbb6b)"><path fill="#004aad" d="M 210.253906 16.507812 C 209.984375 16.214844 209.527344 16.199219 209.234375 16.472656 L 205.8125 19.65625 L 204.664062 18.792969 C 204.445312 19.222656 204.203125 19.644531 203.929688 20.054688 L 205.429688 21.175781 C 205.492188 21.222656 205.558594 21.257812 205.628906 21.28125 C 205.875 21.363281 206.15625 21.308594 206.355469 21.125 L 210.21875 17.53125 C 210.511719 17.257812 210.527344 16.800781 210.253906 16.507812 " fill-opacity="1" fill-rule="nonzero"/></g></g></g><g clip-path="url(#2a9ac125a2)"><g clip-path="url(#fd57797cfc)"><g clip-path="url(#a104e28856)"><path fill="#004aad" d="M 199.617188 24.132812 L 201.007812 26.15625 C 201.097656 26.289062 201.226562 26.382812 201.371094 26.433594 C 201.539062 26.488281 201.726562 26.484375 201.898438 26.40625 L 206.710938 24.242188 C 207.078125 24.078125 207.238281 23.652344 207.074219 23.289062 C 206.910156 22.921875 206.484375 22.761719 206.121094 22.925781 L 201.855469 24.839844 L 200.816406 23.328125 C 200.429688 23.617188 200.027344 23.886719 199.617188 24.132812 " fill-opacity="1" fill-rule="nonzero"/></g></g></g><g clip-path="url(#192840bcb3)"><g clip-path="url(#d372c2e6e3)"><g clip-path="url(#23a41e30d3)"><path fill="#004aad" d="M 193.5625 32.808594 C 193.585938 32.820312 193.605469 32.828125 193.628906 32.835938 C 193.976562 32.957031 194.363281 32.792969 194.519531 32.453125 L 196.574219 27.945312 C 196.65625 27.761719 196.660156 27.554688 196.582031 27.371094 L 195.867188 25.621094 C 195.371094 25.726562 194.878906 25.796875 194.394531 25.832031 L 195.125 27.628906 L 193.203125 31.851562 C 193.039062 32.214844 193.199219 32.644531 193.5625 32.808594 " fill-opacity="1" fill-rule="nonzero"/></g></g></g><g clip-path="url(#4f7d8894ab)"><g clip-path="url(#21362657da)"><g clip-path="url(#10d9b25f14)"><path fill="#004aad" d="M 198.566406 2.316406 C 198.332031 1.992188 197.882812 1.921875 197.558594 2.15625 L 193.289062 5.257812 C 193.003906 5.460938 192.910156 5.839844 193.0625 6.15625 L 193.875 7.84375 C 194.328125 7.65625 194.789062 7.496094 195.25 7.367188 L 194.628906 6.070312 L 198.40625 3.324219 C 198.730469 3.089844 198.804688 2.636719 198.566406 2.316406 " fill-opacity="1" fill-rule="nonzero"/></g></g></g><g clip-path="url(#a917adc7ed)"><g clip-path="url(#b0ecf18d8b)"><g clip-path="url(#633c1ff85b)"><path fill="#004aad" d="M 190.296875 4.308594 L 187.25 8.617188 C 187.046875 8.902344 187.078125 9.292969 187.324219 9.542969 L 189.042969 11.292969 C 189.363281 10.9375 189.703125 10.59375 190.066406 10.269531 L 188.777344 8.960938 L 191.476562 5.144531 C 191.707031 4.816406 191.628906 4.367188 191.304688 4.136719 C 190.980469 3.90625 190.527344 3.980469 190.296875 4.308594 " fill-opacity="1" fill-rule="nonzero"/></g></g></g><g clip-path="url(#4c5b074cbf)"><g clip-path="url(#ad66dd9b4a)"><g clip-path="url(#d46399127e)"><path fill="#004aad" d="M 184.75 15.027344 L 186.375 16.09375 C 186.503906 15.621094 186.667969 15.148438 186.863281 14.6875 L 185.285156 13.648438 C 185.117188 13.539062 184.914062 13.503906 184.71875 13.550781 L 179.902344 14.699219 C 179.511719 14.792969 179.273438 15.183594 179.367188 15.570312 C 179.425781 15.824219 179.609375 16.011719 179.835938 16.089844 C 179.960938 16.132812 180.101562 16.140625 180.238281 16.105469 L 184.75 15.027344 " fill-opacity="1" fill-rule="nonzero"/></g></g></g><g clip-path="url(#a8eb28d2cd)"><g clip-path="url(#81de57b309)"><g clip-path="url(#bf022005e4)"><path fill="#004aad" d="M 200.730469 8.082031 L 200.5 8.765625 L 200.964844 7.398438 C 202.265625 7.839844 203.351562 8.578125 204.1875 9.59375 C 205.140625 10.75 205.675781 12.15625 205.78125 13.695312 C 206.511719 12.769531 206.953125 11.730469 207.078125 10.734375 C 207.144531 10.207031 207.121094 9.695312 207.003906 9.210938 C 206.882812 8.710938 206.65625 8.242188 206.324219 7.839844 C 205.988281 7.433594 205.574219 7.125 205.101562 6.90625 C 204.980469 6.851562 204.859375 6.800781 204.730469 6.757812 C 204.382812 6.636719 204.011719 6.570312 203.625 6.542969 C 202.621094 6.472656 201.515625 6.707031 200.464844 7.246094 C 200.632812 7.292969 200.800781 7.339844 200.964844 7.398438 L 200.730469 8.082031 " fill-opacity="1" fill-rule="nonzero"/></g></g></g><g clip-path="url(#6650bb07d8)"><g clip-path="url(#637205cc3d)"><g clip-path="url(#50a69a8dd4)"><path fill="#004aad" d="M 188.765625 22.296875 C 189.445312 23.121094 190.328125 23.703125 191.339844 24.042969 C 192.105469 24.304688 192.941406 24.425781 193.8125 24.410156 C 194.300781 24.402344 194.804688 24.351562 195.3125 24.257812 C 196.476562 24.042969 197.664062 23.601562 198.796875 22.9375 C 199.207031 22.699219 199.609375 22.429688 200 22.132812 C 200.128906 22.035156 200.257812 21.933594 200.386719 21.828125 C 201.347656 21.035156 202.144531 20.136719 202.769531 19.183594 C 203.042969 18.769531 203.28125 18.34375 203.484375 17.914062 C 203.613281 17.640625 203.726562 17.363281 203.828125 17.089844 C 203.949219 16.761719 204.050781 16.429688 204.128906 16.101562 C 204.207031 15.773438 204.265625 15.445312 204.300781 15.117188 C 204.5 13.410156 204.113281 11.777344 203.074219 10.515625 C 202.394531 9.691406 201.507812 9.109375 200.5 8.765625 C 199.960938 8.582031 199.386719 8.46875 198.792969 8.421875 C 198.464844 8.398438 198.132812 8.390625 197.792969 8.40625 C 197.453125 8.417969 197.113281 8.457031 196.769531 8.511719 C 196.476562 8.554688 196.183594 8.617188 195.890625 8.691406 C 195.429688 8.808594 194.964844 8.960938 194.503906 9.148438 C 193.453125 9.578125 192.414062 10.1875 191.453125 10.980469 C 191.324219 11.085938 191.199219 11.191406 191.078125 11.300781 C 190.710938 11.628906 190.371094 11.972656 190.058594 12.328125 C 189.191406 13.3125 188.53125 14.394531 188.09375 15.496094 C 187.90625 15.976562 187.761719 16.457031 187.660156 16.9375 C 187.242188 18.914062 187.574219 20.847656 188.765625 22.296875 " fill-opacity="1" fill-rule="nonzero"/></g></g></g><g clip-path="url(#6633419151)"><g clip-path="url(#79f207666a)"><g clip-path="url(#79b8b69091)"><path fill="#004aad" d="M 217.597656 11.277344 C 217.21875 11.148438 217.015625 10.738281 217.144531 10.359375 L 217.882812 8.175781 C 218.011719 7.800781 218.421875 7.597656 218.800781 7.726562 C 219.179688 7.851562 219.382812 8.265625 219.253906 8.640625 L 218.511719 10.824219 C 218.386719 11.203125 217.972656 11.402344 217.597656 11.277344 Z M 217.929688 12.542969 C 217.800781 12.921875 217.390625 13.125 217.011719 12.996094 C 216.632812 12.867188 216.433594 12.457031 216.558594 12.078125 L 216.597656 11.964844 C 216.726562 11.585938 217.136719 11.382812 217.515625 11.511719 C 217.894531 11.640625 218.097656 12.050781 217.96875 12.429688 Z M 219.855469 4.617188 L 210.128906 12.167969 L 222.980469 16.527344 L 219.855469 4.617188 " fill-opacity="1" fill-rule="nonzero"/></g></g></g></svg>